<?xml version="1.0" encoding="utf-8"?>
<!-- Generator: Adobe Illustrator 24.3.0, SVG Export Plug-In . SVG Version: 6.00 Build 0)  -->
<svg version="1.1" id="Layer_1" xmlns="http://www.w3.org/2000/svg" xmlns:xlink="http://www.w3.org/1999/xlink" x="0px" y="0px"
	 width="24px" height="24px" viewBox="0 0 24 24" enable-background="new 0 0 24 24" xml:space="preserve">
<path d="M13.5,2.6c1.1,0,2.3,0.1,3.4,0.1c0,1.4,0.4,2.7,1.3,3.8c1,1.1,2.3,1.3,3.7,1.3c0,1.2,0,2.4,0,3.6c-1.8,0.1-3.5-0.4-5.1-1.3
	v0.1c0,2.1,0,4.1,0,6.2c0,1.5-0.4,2.9-1.3,4.1c-0.9,1.3-2.2,2.1-3.7,2.4c-2,0.4-3.9,0.1-5.6-1.2c-1.3-1-2-2.3-2.3-3.9
	c-0.2-1.2-0.2-2.4,0.3-3.6c0.9-2.2,2.6-3.5,4.9-4c0.9-0.2,1.5-0.2,2.2-0.1c0.1,0,0.1,0.1,0.1,0.1c0,1.1,0,2.2,0,3.2c0,0,0,0,0,0.1
	c-0.3,0-0.5-0.1-0.8-0.1c-1.6-0.2-3.1,1-3.3,2.6c-0.2,1.4,0.4,2.8,1.8,3.4c1.3,0.6,2.9,0.2,3.8-0.9c0.5-0.6,0.6-1.3,0.6-2
	c0-4.5,0-8.9,0-13.4C13.5,2.9,13.5,2.8,13.5,2.6z"/>
</svg>
