<svg width="512" height="512" viewBox="0 0 512 512" fill="none" xmlns="http://www.w3.org/2000/svg">
<path d="M401.063 64.2699C396.435 61.9723 391.529 59.6046 386.917 57.3073C383.299 55.5 381.392 54.3421 381.93 53.9113L381.979 53.8633C383.804 53.3573 387.993 53.7075 390.307 53.862C401.781 54.3394 414.476 53.8112 423.733 48.007C441.188 35.9888 434.979 19.4661 414.705 17.0421C391.872 14.2637 371.288 26.6838 354.322 40.2427C351.062 42.3537 347.607 43.2061 343.826 42.863C242.096 24.6079 77.6209 102.912 123.711 223.31C147.896 283.537 237.68 264.664 224.902 198.686C221.953 183.883 210.446 174.44 206.47 161.575C192.747 115.092 275.181 71.3963 309.862 75.7018C314.67 77.0734 312.893 80.9707 310.661 84.534C289.164 113.858 276.745 147.936 261.246 180.396C230.118 241.924 181.372 340.145 129.594 370.293C113.785 378.656 95.2549 380.435 78.9573 387.127C55.2279 395.694 41.7824 423.985 47.2421 447.846C54.9672 486.481 99.313 503.132 133.571 492.189C143.056 489.307 151.905 484.636 160.168 478.684C193.904 453.617 214.765 413.655 231.275 377.333C245.617 346.678 256.047 312.793 266.233 280.68C268.939 277.63 272.752 290.737 275.621 294.063C276.908 296.058 278.359 297.893 279.956 299.632C304.745 326.764 344.217 326.769 375.134 312.818C471.306 270.747 507.813 116.028 401.112 64.2381L401.063 64.2699ZM301.208 259.595C295.08 257.043 289.083 253.548 285.057 248.604C278.293 240.189 280.738 231.74 283.085 221.968C288.577 201.053 296.726 179.223 303.881 158.663C309.862 142.304 330.821 86.7767 345.277 80.8187C356.131 78.4653 376.796 92.241 384.065 100.11L384.293 100.343C435.223 152.577 381.767 288.809 301.224 259.579L301.208 259.595Z" fill="black"/>
</svg>
