<?xml version="1.0" standalone="no"?>
<!DOCTYPE svg PUBLIC "-//W3C//DTD SVG 20010904//EN"
 "http://www.w3.org/TR/2001/REC-SVG-20010904/DTD/svg10.dtd">
<svg version="1.0" xmlns="http://www.w3.org/2000/svg"
 width="880.000000pt" height="880.000000pt" viewBox="0 0 880.000000 880.000000"
 preserveAspectRatio="xMidYMid meet">
<metadata>
Created by potrace 1.11, written by Peter Selinger 2001-2013
</metadata>
<g transform="translate(0.000000,880.000000) scale(0.100000,-0.100000)"
fill="#000000" stroke="none">
<path d="M5745 8352 c-158 -17 -432 -111 -537 -184 -16 -11 -28 -16 -28 -12 0
4 -8 0 -17 -8 -10 -8 -47 -31 -83 -50 -95 -52 -138 -76 -201 -114 -31 -19 -62
-34 -68 -34 -6 0 -11 -4 -11 -8 0 -4 -12 -13 -27 -20 -16 -6 -91 -50 -168 -97
-77 -48 -152 -91 -167 -98 -16 -6 -28 -15 -28 -19 0 -4 -4 -8 -9 -8 -5 0 -39
-18 -75 -40 -36 -22 -70 -40 -76 -40 -5 0 -10 -4 -10 -10 0 -5 -4 -10 -8 -10
-5 0 -90 -49 -189 -108 -99 -60 -186 -112 -194 -115 -8 -4 -26 -15 -40 -25
-15 -9 -48 -30 -75 -46 -27 -16 -99 -59 -159 -96 l-110 -66 -45 28 c-25 15
-52 31 -60 35 -8 4 -53 29 -100 56 -47 27 -100 58 -117 68 -18 11 -48 27 -65
38 -55 31 -331 193 -363 212 -38 23 -124 69 -128 69 -1 0 -3 -210 -3 -467 0
-509 -4 -474 56 -505 14 -7 80 -46 148 -85 68 -40 126 -73 128 -73 3 0 30 -16
60 -35 30 -19 57 -35 60 -35 3 0 25 -13 49 -30 24 -16 46 -30 49 -30 3 0 35
-18 71 -40 36 -22 68 -40 71 -40 3 0 18 -8 32 -18 15 -11 56 -35 92 -55 l65
-36 103 60 c57 32 106 59 110 59 3 0 13 6 21 14 9 7 41 26 71 42 30 16 57 31
60 35 3 3 32 20 65 39 86 48 113 63 173 99 29 17 57 31 62 31 6 0 10 4 10 8 0
4 15 15 33 23 17 9 106 58 197 110 91 53 172 98 180 102 8 4 29 16 45 26 17
11 46 28 65 39 19 11 51 28 70 39 185 107 333 189 432 241 18 9 35 19 38 22 3
3 37 21 75 39 167 81 314 102 470 67 37 -8 150 -64 172 -85 12 -12 26 -21 30
-21 4 0 32 -25 60 -56 124 -133 210 -302 261 -514 36 -151 46 -238 46 -430 0
-139 -6 -248 -18 -305 -2 -11 -7 -42 -10 -69 -4 -27 -9 -53 -11 -57 -3 -4 -7
-24 -11 -45 -3 -20 -10 -48 -15 -61 -5 -13 -7 -23 -4 -23 3 0 -41 -133 -82
-246 -10 -28 -26 -63 -36 -77 -9 -14 -17 -31 -17 -36 0 -19 -128 -243 -142
-249 -4 -2 -8 -8 -8 -14 0 -17 -129 -196 -210 -293 -124 -147 -266 -276 -395
-359 -106 -68 -135 -86 -139 -86 -2 0 -39 -20 -80 -45 -42 -25 -81 -45 -86
-45 -6 0 -10 -4 -10 -9 0 -5 -9 -13 -20 -16 -16 -5 -300 -166 -360 -205 -45
-28 -121 -70 -126 -69 -4 0 -10 -3 -13 -8 -3 -4 -17 -14 -31 -22 -14 -8 -108
-63 -209 -123 -101 -59 -188 -108 -192 -108 -5 0 -9 -4 -9 -8 0 -4 -12 -13
-27 -20 -16 -6 -46 -23 -68 -37 -22 -14 -48 -28 -57 -32 -10 -3 -18 -9 -18
-14 0 -5 -6 -9 -14 -9 -8 0 -21 -6 -28 -12 -17 -16 -88 -58 -110 -65 -10 -3
-18 -9 -18 -14 0 -5 -4 -9 -8 -9 -5 0 -66 -34 -137 -75 l-128 -74 -27 19 c-16
11 -30 20 -33 20 -10 0 -132 74 -135 82 -2 5 -10 8 -17 8 -7 0 -43 18 -79 40
-36 22 -70 40 -75 40 -5 0 -11 3 -13 8 -1 4 -17 15 -34 24 -24 14 -33 15 -36
5 -2 -6 -4 -218 -3 -470 l0 -459 225 -129 c215 -123 249 -136 270 -110 4 5 26
17 115 65 11 6 22 13 25 16 3 3 16 11 30 18 14 6 50 26 81 44 102 59 263 150
319 181 30 16 62 36 71 43 8 8 18 14 21 14 3 0 35 16 70 36 34 20 79 45 98 56
62 35 373 210 420 236 25 14 50 28 55 32 6 4 44 25 85 47 96 52 157 85 251
139 42 24 81 44 87 44 7 0 12 5 12 10 0 6 7 10 15 10 8 0 15 5 15 10 0 6 5 10
11 10 13 0 126 68 153 92 11 10 28 20 38 24 10 3 18 10 18 15 0 5 4 9 10 9 5
0 20 9 32 19 13 10 59 48 103 82 145 115 373 351 515 534 30 39 59 75 63 80
32 39 147 206 147 214 0 5 4 11 8 13 16 6 191 295 259 428 115 222 240 561
289 781 2 10 6 29 9 42 3 12 7 33 10 47 5 27 12 60 20 100 2 14 7 41 10 60 3
19 8 46 10 60 3 14 7 50 10 80 3 30 8 69 10 85 23 155 23 560 0 733 -13 97
-35 236 -50 302 -2 14 -8 41 -11 60 -4 19 -9 40 -13 45 -3 6 -6 15 -7 20 -8
50 -72 245 -85 260 -5 5 -9 15 -9 23 0 18 -87 190 -140 277 -75 123 -200 269
-292 340 -29 23 -84 61 -103 71 -11 6 -36 20 -55 31 -38 21 -176 68 -231 79
-38 7 -218 11 -264 6z"/>
<path d="M5318 6255 c-2 -2 -20 -5 -41 -8 -22 -3 -107 -44 -210 -103 -94 -53
-253 -143 -352 -199 -99 -57 -202 -115 -230 -131 -27 -15 -66 -36 -85 -47 -19
-11 -55 -31 -79 -45 -25 -14 -67 -38 -93 -53 -27 -16 -53 -29 -58 -29 -6 0
-10 -4 -10 -10 0 -5 -5 -10 -10 -10 -6 0 -43 -19 -83 -42 -40 -22 -90 -51
-112 -62 -22 -12 -42 -23 -45 -26 -3 -3 -19 -13 -37 -23 -173 -96 -390 -220
-397 -227 -8 -8 -41 8 -171 84 -38 22 -81 46 -95 53 -14 7 -32 17 -40 23 -8 5
-67 39 -130 75 -63 36 -122 70 -130 75 -8 6 -22 13 -30 17 -8 4 -64 35 -123
70 -60 35 -111 63 -114 63 -4 0 -14 6 -22 14 -9 7 -45 29 -81 48 -36 20 -116
65 -179 102 -62 36 -115 66 -116 66 -2 0 -33 18 -69 40 -36 22 -68 40 -72 40
-3 0 -18 8 -32 19 -15 10 -49 31 -77 45 -27 15 -57 31 -65 36 -30 19 -169 99
-197 113 l-28 15 0 -470 0 -469 25 -19 c14 -11 33 -20 43 -20 9 0 17 -5 17
-10 0 -6 10 -14 23 -19 13 -5 58 -30 101 -55 43 -25 82 -46 87 -46 5 0 9 -4 9
-10 0 -5 4 -10 10 -10 5 0 69 -35 142 -77 73 -42 151 -87 173 -99 22 -13 51
-29 65 -37 14 -8 45 -26 70 -39 25 -14 70 -40 100 -58 30 -18 73 -43 95 -55
22 -12 96 -54 164 -93 68 -40 127 -72 132 -72 5 0 9 -4 9 -10 0 -5 5 -10 10
-10 9 0 156 -83 318 -179 29 -17 55 -31 57 -31 3 0 27 -14 54 -30 l49 -31 39
21 c21 12 54 30 73 42 19 11 53 30 75 41 22 12 42 24 45 27 3 3 25 15 50 27
63 31 127 68 145 83 8 7 15 9 15 5 0 -5 8 -1 18 7 17 15 59 38 207 118 44 24
82 46 85 49 3 3 28 17 55 31 28 14 52 28 53 33 2 4 8 7 14 7 5 0 55 26 111 59
56 32 134 75 172 96 39 21 82 46 97 57 14 10 29 18 32 18 3 0 126 68 273 151
183 102 283 165 316 197 135 130 226 337 228 517 2 151 -59 302 -139 348 -30
18 -97 38 -104 32z"/>
<path d="M2160 2023 c1 -21 1 -42 0 -48 -2 -13 -2 -57 1 -152 0 -16 0 -35 0
-43 -1 -8 -1 -26 0 -40 0 -14 0 -31 0 -37 -1 -16 -1 -29 -1 -98 -1 -30 -1 -67
-1 -82 0 -16 1 -55 2 -89 1 -34 -1 -66 -5 -72 -4 -7 -3 -12 2 -12 5 0 6 -16 2
-38 -3 -20 -3 -49 1 -63 3 -15 3 -33 -2 -40 -4 -7 -5 -17 -2 -22 3 -4 5 -24 5
-42 0 -33 4 -37 92 -86 50 -29 99 -59 109 -67 9 -8 17 -12 17 -8 0 4 20 -7 44
-24 25 -16 47 -30 49 -30 3 0 41 -21 84 -46 43 -26 92 -55 109 -64 136 -78
203 -116 224 -129 14 -9 45 -26 70 -39 25 -14 52 -30 60 -36 8 -7 33 -21 55
-31 22 -11 42 -23 45 -26 9 -9 222 -129 230 -129 5 0 10 -3 12 -7 2 -5 26 -20
53 -35 l50 -27 50 28 c71 40 437 249 455 260 8 5 95 55 193 111 115 66 177
107 178 118 6 86 2 922 -4 922 -7 0 -92 -47 -217 -120 -21 -12 -451 -258 -513
-294 -27 -15 -71 -41 -96 -55 l-46 -27 -190 109 c-104 60 -248 144 -320 185
-71 41 -150 86 -175 100 -25 14 -53 32 -62 40 -10 8 -18 11 -18 7 0 -4 -8 -2
-17 6 -10 8 -29 20 -43 28 -14 8 -115 66 -225 129 -110 63 -213 123 -228 134
l-29 20 2 -39z"/>
</g>
</svg>
