<?xml version="1.0" encoding="UTF-8"?>
<svg id="Layer_1" xmlns="http://www.w3.org/2000/svg" xmlns:xlink="http://www.w3.org/1999/xlink" version="1.1" viewBox="0 0 880 880">
  <!-- Generator: Adobe Illustrator 29.0.1, SVG Export Plug-In . SVG Version: 2.1.0 Build 192)  -->
  <defs>
    <style>
      .st0 {
        fill: #fff;
      }

      .st0, .st1 {
        fill-rule: evenodd;
      }

      .st1 {
        fill: url(#radial-gradient);
      }
    </style>
    <radialGradient id="radial-gradient" cx="-71.1" cy="825.1" fx="-71.1" fy="825.1" r="1.9" gradientTransform="translate(-178673.7 -97270.9) rotate(123.6) scale(247.6 -246.4)" gradientUnits="userSpaceOnUse">
      <stop offset="0" stop-color="#fff"/>
      <stop offset="1" stop-color="#fff" stop-opacity=".9"/>
    </radialGradient>
  </defs>
  <path d="M135.8,280.6c-4.1-39.3,4.1-71.8,24.9-97.4,20.7-25.6,50.8-40.4,90.1-44.6l170.1-17.9c100.7-10.6,177.6,1.2,231,35.4,53.3,33.6,83.4,84.2,90.5,151.9,7.1,67.7-11.8,124.3-56.7,170-45,45.1-117.8,72.9-218.5,83.5l-41.7,4.4,5.7,53.8c4.1,39.3-4.1,71.8-24.9,97.4-20.7,25.6-50.8,40.4-90.1,44.6-39.3,4.1-71.8-4.1-97.4-24.9-25.6-20.7-40.4-50.8-44.6-90.1l-38.5-366.2ZM397.4,298.7l10.9,104.1,34.7-3.6c17.4-1.8,30.5-7.9,39.3-18.2,8.8-10.8,12.4-24.1,10.7-39.7s-7.9-27.5-18.7-35.8c-10.8-8.8-25-12.3-42.3-10.5l-34.7,3.6Z"/>
  <path class="st1" d="M722.8,514.9h-.1c-55.3,55.6-138.3,85.6-239.6,97.6l.2,1.8c5.3,50.1-5,97.3-36.2,135.8-31.2,38.5-75.2,58.4-125.3,63.7-50.1,5.3-97.3-5-135.8-36.2-38.5-31.2-58.4-75.2-63.7-125.3l-38.5-366.2c-5.3-50.1,5-97.3,36.2-135.8,31.2-38.5,75.2-58.4,125.3-63.7l170.1-17.9c105.8-11.1,196.8,0,264.5,43.3,68,42.9,105.9,108.5,114.5,190.6,8.6,82.1-14.8,154.6-71.4,212.2h-.1ZM431.2,619.8c4.1,39.3-4.1,71.8-24.9,97.4-20.7,25.6-50.8,40.4-90.1,44.6-39.3,4.1-71.8-4.1-97.4-24.9-25.6-20.7-40.4-50.8-44.6-90.1l-38.5-366.2c-4.1-39.3,4.1-71.8,24.9-97.4,20.7-25.6,50.8-40.4,90.1-44.6l170.1-17.9c100.7-10.6,177.6,1.2,231,35.4,53.3,33.6,83.4,84.2,90.5,151.9,7.1,67.7-11.8,124.3-56.7,170-45,45.1-117.8,72.9-218.5,83.5l-41.7,4.4,5.7,53.8ZM460.2,395.5c-5.2,1.8-10.9,3-17.2,3.6l-34.7,3.6-10.9-104.1,34.7-3.6c6.3-.7,12.1-.6,17.6.1,9.6,1.3,17.9,4.8,24.8,10.4,10.8,8.3,17,20.1,18.7,35.8,1.6,15.6-2,28.9-10.7,39.7-5.6,6.6-13,11.4-22.2,14.5Z"/>
  <path class="st0" d="M361.5,179.6c-.5-4.8,3-9.1,7.8-9.6l17.2-1.8c4.8-.5,9.1,3,9.6,7.8.5,4.8-3,9.1-7.8,9.6l-17.2,1.8c-4.8.5-9.1-3-9.6-7.8ZM417.6,173.7c-.5-4.8,3-9.1,7.8-9.6,88.7-9.3,157.5-.3,202.8,28.8,42.6,26.9,65,65.4,70.7,119.7.5,4.8-3,9.1-7.8,9.6s-9.1-3-9.6-7.8c-5.2-49.6-25.1-83-62.7-106.8h0c-40.3-25.9-104.2-35.3-191.6-26.1-4.8.5-9.1-3-9.6-7.8ZM219,571.8c4.8-.5,9.1,3,9.6,7.8l2,19.4c.5,4.8-3,9.1-7.8,9.6-4.8.5-9.1-3-9.6-7.8l-2-19.4c-.5-4.8,3-9.1,7.8-9.6ZM225.4,632.6c4.8-.5,9.1,3,9.6,7.8,2.5,23.8,10.1,39.2,22.2,49,12.1,9.8,28.8,14.1,52.6,11.6,23.8-2.5,39.2-10.1,49-22.2,3-3.7,8.5-4.3,12.3-1.3,3.7,3,4.3,8.5,1.3,12.3-13.6,16.9-34.1,25.8-60.8,28.6-26.7,2.8-48.5-1.7-65.4-15.4-16.9-13.6-25.8-34.1-28.6-60.8-.5-4.8,3-9.1,7.8-9.6Z"/>
</svg>