<svg width="112" height="57" viewBox="0 0 112 57" fill="none" xmlns="http://www.w3.org/2000/svg">
<g filter="url(#filter0_dddd_2613_4428)">
<path d="M62 36.9669C88.075 36.9669 109.213 29.0354 109.213 19.2515C109.213 9.46758 88.075 1.53613 62 1.53613C35.925 1.53613 14.7871 9.46758 14.7871 19.2515C14.7871 29.0354 35.925 36.9669 62 36.9669Z" fill="url(#paint0_radial_2613_4428)"/>
</g>
<path d="M31.3799 27.3797C29.4546 26.8822 27.5406 26.3369 25.6406 25.7411V21.7022C26.4641 21.5701 27.8357 20.3503 28.6227 18.4531C28.7857 18.0259 28.9066 17.6858 28.9066 17.1659C28.9066 16.7611 28.6845 16.3817 28.1786 16.4407C27.8273 16.4801 27.4788 16.5194 27.1303 16.5588V12.3035C30.2557 11.3732 33.4092 10.5693 36.5852 9.89478V14.4677C36.5852 16.0051 37.1586 17.5509 37.5492 18.4616C37.85 19.2036 38.1507 19.9624 38.4543 20.7354C39.0501 22.2419 39.379 22.8405 39.6881 23.0204V29.2263C37.3132 28.785 34.9522 28.2735 32.6025 27.6917V22.7084C33.2349 22.7731 33.4795 22.3852 33.4795 21.8905C33.4795 21.5336 33.3558 21.1682 33.2546 20.918C33.1872 20.7691 33.1197 20.6201 33.0494 20.474C31.8268 20.4318 30.607 20.3868 29.3928 20.3391C29.5362 21.2075 30.1208 22.0816 31.3799 22.5819V27.3825V27.3797ZM29.39 19.3216C30.4356 19.3216 31.4867 19.3272 32.5379 19.33C31.9814 18.144 31.4249 17.0141 30.8712 15.9489C30.5058 16.7162 30.1404 17.4582 29.7751 18.1721C29.5924 18.5459 29.4518 18.9337 29.39 19.3216Z" fill="#191919"/>
<path d="M40.6747 29.4035V23.0852C42.1587 23.1835 42.1812 23.0852 42.1812 21.233V17.2335C42.1812 15.3841 42.1587 15.2829 40.6747 15.3812V9.09669C43.3392 8.6245 46.0177 8.24226 48.7046 7.94995C53.1314 7.47777 54.5536 8.88308 54.5507 13.4447C54.5507 17.908 53.2382 18.4729 50.8857 18.5544V19.9064C53.404 19.9907 54.7784 20.4797 54.7784 24.8727C54.7784 29.5524 53.2944 31.0336 48.8677 30.5671C46.1245 30.2719 43.3926 29.8841 40.6719 29.4007L40.6747 29.4035ZM46.4224 15.0496V18.4814C47.1897 18.4757 47.957 18.4673 48.7243 18.4617C49.7418 18.4533 50.1577 18.3071 50.1577 16.7781C50.1577 15.2126 49.6574 14.9034 48.5585 14.9512C47.8446 14.9821 47.1335 15.0131 46.4224 15.0496ZM46.4224 19.9513V23.4168C47.17 23.4534 47.9149 23.4871 48.6625 23.518C49.8036 23.5658 50.3236 23.2932 50.3236 21.6911C50.3236 20.2689 49.8233 19.9766 48.7243 19.971C47.957 19.9654 47.1869 19.9598 46.4224 19.9541V19.9513Z" fill="#191919"/>
<path d="M63.1044 31.7643C57.6996 31.7643 55.6562 27.1409 55.6562 19.0631C55.6562 10.9095 57.6996 6.73572 63.1044 6.73853C68.4896 6.84814 70.5694 11.2018 70.5694 19.0659C70.5694 26.8542 68.4896 31.6547 63.1044 31.7671V31.7643ZM63.1044 14.0602C61.4771 14.0546 60.7238 15.5498 60.7238 19.021C60.7238 22.4921 61.4742 24.3668 63.1044 24.3612C64.7542 24.3527 65.5047 22.4387 65.5047 19.021C65.5047 15.6032 64.7542 14.0686 63.1044 14.0602Z" fill="#191919"/>
<path d="M79.996 15.2434V8.55694C81.7132 8.8127 83.4249 9.10501 85.131 9.43385V15.4795C83.9786 15.3952 83.8971 15.5498 83.8971 17.2418V21.9945C83.8971 26.9075 82.4187 29.8868 78.3602 30.522C74.0683 31.1263 72.6911 28.6079 72.7333 22.4414V17.0141C72.7333 14.9624 72.7755 14.8499 71.4629 14.8106V7.5957C73.8351 7.77839 76.2044 8.03416 78.5653 8.35457V15.1703C77.1994 15.1001 77.1966 15.2097 77.1966 17.1771V19.5324C77.1966 22.5229 77.6744 23.4617 80.159 23.3155C82.0814 23.1975 82.8853 22.4246 82.8853 21.1682C82.8853 18.7202 79.996 18.5965 79.9931 15.2462L79.996 15.2434Z" fill="#191919"/>
<path d="M98.3568 19.3947C98.0139 19.3947 97.6739 19.4003 97.331 19.4003V18.2339C97.331 17.1405 96.87 16.6093 95.2933 16.4294C95.0291 16.4013 94.7677 16.3732 94.5035 16.3451V20.7016C94.5035 22.0563 94.5035 22.135 96.4428 21.9214C96.4428 23.3886 96.4428 24.8557 96.4428 26.3229C93.6041 27.1576 90.7429 27.8856 87.862 28.5095V22.7477C89.7872 22.5847 89.7844 22.4976 89.7844 20.9321V15.887C89.5259 15.8645 89.2673 15.842 89.0087 15.8195C87.4123 15.6762 86.9401 16.303 86.9401 17.8404V19.4621C86.5916 19.4621 86.243 19.4649 85.8945 19.4677V9.58276C90.0908 10.4175 94.2533 11.4771 98.3597 12.7588V19.3947H98.3568Z" fill="#191919"/>
<defs>
<filter id="filter0_dddd_2613_4428" x="0.787109" y="0.536133" width="110.426" height="56.4307" filterUnits="userSpaceOnUse" color-interpolation-filters="sRGB">
<feFlood flood-opacity="0" result="BackgroundImageFix"/>
<feColorMatrix in="SourceAlpha" type="matrix" values="0 0 0 0 0 0 0 0 0 0 0 0 0 0 0 0 0 0 127 0" result="hardAlpha"/>
<feOffset dx="-1" dy="1"/>
<feGaussianBlur stdDeviation="1"/>
<feColorMatrix type="matrix" values="0 0 0 0 0.560784 0 0 0 0 0.560784 0 0 0 0 0.560784 0 0 0 0.1 0"/>
<feBlend mode="normal" in2="BackgroundImageFix" result="effect1_dropShadow_2613_4428"/>
<feColorMatrix in="SourceAlpha" type="matrix" values="0 0 0 0 0 0 0 0 0 0 0 0 0 0 0 0 0 0 127 0" result="hardAlpha"/>
<feOffset dx="-2" dy="4"/>
<feGaussianBlur stdDeviation="2"/>
<feColorMatrix type="matrix" values="0 0 0 0 0.560784 0 0 0 0 0.560784 0 0 0 0 0.560784 0 0 0 0.09 0"/>
<feBlend mode="normal" in2="effect1_dropShadow_2613_4428" result="effect2_dropShadow_2613_4428"/>
<feColorMatrix in="SourceAlpha" type="matrix" values="0 0 0 0 0 0 0 0 0 0 0 0 0 0 0 0 0 0 127 0" result="hardAlpha"/>
<feOffset dx="-5" dy="8"/>
<feGaussianBlur stdDeviation="2.5"/>
<feColorMatrix type="matrix" values="0 0 0 0 0.560784 0 0 0 0 0.560784 0 0 0 0 0.560784 0 0 0 0.05 0"/>
<feBlend mode="normal" in2="effect2_dropShadow_2613_4428" result="effect3_dropShadow_2613_4428"/>
<feColorMatrix in="SourceAlpha" type="matrix" values="0 0 0 0 0 0 0 0 0 0 0 0 0 0 0 0 0 0 127 0" result="hardAlpha"/>
<feOffset dx="-8" dy="14"/>
<feGaussianBlur stdDeviation="3"/>
<feColorMatrix type="matrix" values="0 0 0 0 0.560784 0 0 0 0 0.560784 0 0 0 0 0.560784 0 0 0 0.01 0"/>
<feBlend mode="normal" in2="effect3_dropShadow_2613_4428" result="effect4_dropShadow_2613_4428"/>
<feBlend mode="normal" in="SourceGraphic" in2="effect4_dropShadow_2613_4428" result="shape"/>
</filter>
<radialGradient id="paint0_radial_2613_4428" cx="0" cy="0" r="1" gradientUnits="userSpaceOnUse" gradientTransform="translate(62 19.2515) rotate(156.35) scale(44.1621 32.8853)">
<stop stop-color="white"/>
<stop offset="1" stop-color="white" stop-opacity="0.95"/>
</radialGradient>
</defs>
</svg>
