<svg width="45" height="43" viewBox="0 0 45 43" fill="none" xmlns="http://www.w3.org/2000/svg">
<g filter="url(#filter0_dddd_2644_1626)">
<g filter="url(#filter1_ddd_2644_1626)">
<path d="M41.6957 5.19666L41.3663 4.94966L40.9899 4.78498L40.8723 4.73793L40.4959 4.57326L40.096 4.50269C39.6961 4.43212 39.2726 4.39683 38.8022 4.39683C37.7318 4.39683 36.4967 4.58503 35.4146 4.7497C34.8383 4.8438 34.2384 4.92613 33.8855 4.96142H33.7326L33.5797 4.9967C33.4268 5.02023 33.2857 5.04375 33.1445 5.05552C32.1565 5.1849 30.498 5.42015 29.1689 6.89043L29.0277 7.04334L28.9101 7.20801C28.4043 7.92551 28.1103 8.77239 28.0162 9.77218C27.5927 9.68984 27.1575 9.65456 26.7106 9.65456C26.3577 9.65456 26.0283 9.67808 25.7108 9.71337C25.7108 9.66632 25.746 9.61927 25.7578 9.57222V9.52517L25.7813 9.47812C25.9813 8.29014 26.6047 4.69089 24.217 2.58544L23.7935 2.20905L23.2642 1.98557L23.1584 1.93852L22.7467 1.76208L22.2997 1.69151C21.9468 1.62094 21.5822 1.59741 21.1705 1.59741C20.1707 1.59741 19.1004 1.76208 18.1712 1.91499C17.6301 1.99733 17.1126 2.07966 16.7479 2.10319H16.6538L16.5597 2.12671L16.1951 2.17376C14.6778 2.3502 11.1373 2.77364 10.5139 6.06707C10.2316 7.63145 10.2669 9.63103 10.3022 11.56C10.3022 11.7953 10.3022 12.0423 10.314 12.2775C6.67943 13.1597 3.89178 16.3002 3.70358 20.0524C3.55067 22.2166 4.27993 24.4162 5.72669 26.11C6.8441 27.4156 8.29086 28.333 9.87877 28.7682C9.60823 29.5798 9.44356 30.4385 9.4318 31.3089C9.34946 33.5084 10.1611 35.6139 11.7254 37.2488C13.3604 38.9661 15.6423 39.9424 17.983 39.9424C19.2886 39.9424 20.5824 39.6248 21.7351 39.0249C23.1348 38.3309 25.1227 36.8371 26.0401 33.7672C27.1693 34.3318 28.4278 34.6376 29.7335 34.6376C34.0855 34.6376 37.8612 31.3677 38.3199 27.1803V27.1333V27.0862C38.5199 24.7926 38.4846 21.9696 38.4493 19.2408C38.4375 18.1587 38.4258 17.1118 38.4258 16.1944C42.6955 15.4416 43.6482 13.0539 43.6364 11.0425C43.7423 9.58398 43.8599 6.83162 41.6957 5.1849V5.19666Z" fill="#3AE660"/>
</g>
<path d="M17.2317 18.3705C17.2317 16.3474 17.2317 13.0187 17.2317 11.7248C17.2552 11.2896 17.2905 10.8662 17.6433 10.5839C18.4785 9.79582 21.9954 10.3604 22.3012 8.85484C22.4776 7.808 22.7129 5.94956 21.8778 5.20854L21.7719 5.16149C20.5251 4.97329 18.4432 5.51436 17.0082 5.62022C15.9496 5.76136 14.1264 5.86722 13.9618 6.71411C13.5971 8.76074 13.9618 12.6776 13.7853 14.9359C13.7148 15.5358 13.3619 15.5829 12.8443 15.5829C10.0802 15.3006 7.33961 17.359 7.21022 20.2642C6.9985 22.8872 9.06866 25.322 11.6799 25.522C15.9143 25.8395 17.6198 22.0168 17.2199 18.3705H17.2317Z" fill="#191919"/>
<path d="M39.5684 8.00785L39.4508 7.9608C38.2275 7.73732 35.6045 8.34896 34.146 8.46658C33.1109 8.63125 32.3463 8.61949 31.7818 9.24289C31.5818 9.52518 31.523 9.91334 31.5112 10.2897C31.4877 12.1364 31.5112 17.9352 31.5112 20.17C31.5348 20.7699 31.3583 21.2051 30.6761 21.1816C25.783 20.6288 22.8307 26.6746 26.6652 29.968C29.5587 32.5204 34.4047 30.5326 34.8164 26.8039C35.134 23.1106 34.7929 17.3471 34.9576 14.2066C35.1575 11.9012 40.2388 13.7125 40.1094 10.9602C40.18 10.0662 40.2859 8.56068 39.5684 8.00785Z" fill="#191919"/>
<path d="M27.4057 13.2304C26.3942 13.0422 25.4532 13.3363 24.3358 13.4422C23.0772 13.6539 21.16 13.7244 20.2425 14.1361L20.1367 14.1949C19.5603 14.5596 19.5721 15.2771 19.5603 15.924C19.5603 18.0882 19.5721 23.6753 19.5603 25.6279C19.5721 26.9805 17.8783 26.2513 16.902 26.5924C14.679 27.0276 12.9734 29.1095 12.9852 31.3678C12.8205 35.0259 16.9844 37.5548 20.1602 35.8728C22.7832 34.6025 23.1478 31.6854 23.0066 29.2977C23.0066 27.1687 23.0066 23.2754 23.0066 21.017C23.1007 19.7114 22.6538 18.9116 23.8653 18.3941C24.9709 17.9353 26.7 18.1471 27.7116 17.3943C28.4173 16.8179 28.5349 13.4774 27.441 13.2069L27.4057 13.2304Z" fill="#191919"/>
</g>
<defs>
<filter id="filter0_dddd_2644_1626" x="0.683594" y="0.597412" width="44" height="41.345" filterUnits="userSpaceOnUse" color-interpolation-filters="sRGB">
<feFlood flood-opacity="0" result="BackgroundImageFix"/>
<feColorMatrix in="SourceAlpha" type="matrix" values="0 0 0 0 0 0 0 0 0 0 0 0 0 0 0 0 0 0 127 0" result="hardAlpha"/>
<feOffset/>
<feGaussianBlur stdDeviation="0.5"/>
<feColorMatrix type="matrix" values="0 0 0 0 0.560784 0 0 0 0 0.560784 0 0 0 0 0.560784 0 0 0 0.24 0"/>
<feBlend mode="normal" in2="BackgroundImageFix" result="effect1_dropShadow_2644_1626"/>
<feColorMatrix in="SourceAlpha" type="matrix" values="0 0 0 0 0 0 0 0 0 0 0 0 0 0 0 0 0 0 127 0" result="hardAlpha"/>
<feOffset dx="-1"/>
<feGaussianBlur stdDeviation="0.5"/>
<feColorMatrix type="matrix" values="0 0 0 0 0.560784 0 0 0 0 0.560784 0 0 0 0 0.560784 0 0 0 0.14 0"/>
<feBlend mode="normal" in2="effect1_dropShadow_2644_1626" result="effect2_dropShadow_2644_1626"/>
<feColorMatrix in="SourceAlpha" type="matrix" values="0 0 0 0 0 0 0 0 0 0 0 0 0 0 0 0 0 0 127 0" result="hardAlpha"/>
<feOffset dx="-1" dy="1"/>
<feGaussianBlur stdDeviation="0.5"/>
<feColorMatrix type="matrix" values="0 0 0 0 0.560784 0 0 0 0 0.560784 0 0 0 0 0.560784 0 0 0 0.04 0"/>
<feBlend mode="normal" in2="effect2_dropShadow_2644_1626" result="effect3_dropShadow_2644_1626"/>
<feColorMatrix in="SourceAlpha" type="matrix" values="0 0 0 0 0 0 0 0 0 0 0 0 0 0 0 0 0 0 127 0" result="hardAlpha"/>
<feOffset dx="-2" dy="1"/>
<feGaussianBlur stdDeviation="0.5"/>
<feColorMatrix type="matrix" values="0 0 0 0 0.560784 0 0 0 0 0.560784 0 0 0 0 0.560784 0 0 0 0.01 0"/>
<feBlend mode="normal" in2="effect3_dropShadow_2644_1626" result="effect4_dropShadow_2644_1626"/>
<feBlend mode="normal" in="SourceGraphic" in2="effect4_dropShadow_2644_1626" result="shape"/>
</filter>
<filter id="filter1_ddd_2644_1626" x="1.68359" y="1.59741" width="43" height="41.345" filterUnits="userSpaceOnUse" color-interpolation-filters="sRGB">
<feFlood flood-opacity="0" result="BackgroundImageFix"/>
<feColorMatrix in="SourceAlpha" type="matrix" values="0 0 0 0 0 0 0 0 0 0 0 0 0 0 0 0 0 0 127 0" result="hardAlpha"/>
<feOffset dy="1"/>
<feGaussianBlur stdDeviation="0.5"/>
<feColorMatrix type="matrix" values="0 0 0 0 0.560784 0 0 0 0 0.560784 0 0 0 0 0.560784 0 0 0 0.09 0"/>
<feBlend mode="normal" in2="BackgroundImageFix" result="effect1_dropShadow_2644_1626"/>
<feColorMatrix in="SourceAlpha" type="matrix" values="0 0 0 0 0 0 0 0 0 0 0 0 0 0 0 0 0 0 127 0" result="hardAlpha"/>
<feOffset dx="-1" dy="1"/>
<feGaussianBlur stdDeviation="0.5"/>
<feColorMatrix type="matrix" values="0 0 0 0 0.560784 0 0 0 0 0.560784 0 0 0 0 0.560784 0 0 0 0.05 0"/>
<feBlend mode="normal" in2="effect1_dropShadow_2644_1626" result="effect2_dropShadow_2644_1626"/>
<feColorMatrix in="SourceAlpha" type="matrix" values="0 0 0 0 0 0 0 0 0 0 0 0 0 0 0 0 0 0 127 0" result="hardAlpha"/>
<feOffset dx="-1" dy="2"/>
<feGaussianBlur stdDeviation="0.5"/>
<feColorMatrix type="matrix" values="0 0 0 0 0.560784 0 0 0 0 0.560784 0 0 0 0 0.560784 0 0 0 0.01 0"/>
<feBlend mode="normal" in2="effect2_dropShadow_2644_1626" result="effect3_dropShadow_2644_1626"/>
<feBlend mode="normal" in="SourceGraphic" in2="effect3_dropShadow_2644_1626" result="shape"/>
</filter>
</defs>
</svg>
