<svg width="38" height="44" viewBox="0 0 38 44" fill="none" xmlns="http://www.w3.org/2000/svg">
<g filter="url(#filter0_ddd_2644_1621)">
<path d="M31.8919 13.3368C31.0584 15.1705 28.1133 15.9151 26.624 17.3155L26.6352 17.3043L26.4907 17.4377C25.6238 18.2601 24.7903 19.3715 23.69 20.0272C22.901 20.5384 21.9785 21.0386 21.6896 21.9832C21.1561 24.2615 24.2568 26.4065 26.4907 26.3842C29.5358 26.4509 29.6136 29.0515 30.1804 31.5299C31.3251 36.8422 31.7808 36.331 26.6463 36.2977H11.3538C9.33114 36.2532 8.17531 36.4421 7.75299 36.042C7.40847 35.6753 7.54183 35.1418 7.60851 34.6306C7.8419 33.397 8.49761 30.7519 8.85325 29.1849C9.2978 26.262 11.4983 26.5843 13.7988 26.1509C15.5437 25.6841 17.4108 24.0837 17.2107 22.161C17.0107 20.9719 15.5548 20.3717 14.4101 19.4604C13.6877 18.8714 13.1431 18.1823 12.4763 17.56C11.1427 16.1708 8.43093 15.315 7.37513 13.9702C5.66362 12.0142 7.09728 8.89128 9.65343 8.78015C11.5094 8.72458 11.4316 7.26868 11.9095 5.93504C12.2089 5.26974 12.9065 5.2461 13.561 5.22392L13.5655 5.22376H25.3126C27.6354 5.06817 26.8019 7.02418 27.8799 8.31337C28.4467 8.81349 29.2691 8.71346 29.9693 8.94685C31.8364 9.40251 32.8033 11.6586 31.8919 13.3368Z" fill="#3AE660"/>
<path fill-rule="evenodd" clip-rule="evenodd" d="M26.624 17.3155L26.4907 17.4377C26.2263 17.6886 25.965 17.9663 25.6983 18.2498C25.0905 18.8957 24.4547 19.5715 23.69 20.0272C23.6098 20.0792 23.5282 20.131 23.446 20.1833C22.7199 20.6447 21.9491 21.1346 21.6896 21.9832C21.6796 22.0257 21.671 22.068 21.6635 22.1104C21.6177 22.371 21.6185 22.6294 21.6593 22.8824C21.9674 24.7949 24.5546 26.4035 26.4907 26.3842C29.1441 26.4423 29.5445 28.4243 29.9786 30.5729C30.0427 30.8902 30.1075 31.211 30.1804 31.5299C30.7638 34.2372 31.1682 35.432 30.745 35.9484C30.3377 36.4453 29.1641 36.314 26.6463 36.2977H11.3538C10.7509 36.2844 10.2249 36.2919 9.77248 36.2983C8.70721 36.3135 8.04942 36.3229 7.75299 36.042C7.45074 35.7203 7.5163 35.2702 7.58196 34.8195C7.59115 34.7564 7.60033 34.6933 7.60851 34.6306C7.76316 33.8132 8.10323 32.376 8.41857 31.0435C8.57912 30.365 8.73326 29.7136 8.85325 29.1849C9.21955 26.7765 10.7781 26.5714 12.6024 26.3313C12.9921 26.28 13.3939 26.2271 13.7988 26.1509C15.3118 25.7461 16.9166 24.4891 17.1861 22.9087C17.2274 22.6665 17.2373 22.4166 17.2107 22.161C17.2056 22.1304 17.1996 22.1002 17.1928 22.0704C17.0062 21.2494 16.2101 20.7122 15.3609 20.1391C15.0416 19.9236 14.7148 19.703 14.4101 19.4604C13.9802 19.1098 13.6132 18.7239 13.246 18.3376C12.9962 18.0748 12.7463 17.8119 12.4763 17.56C11.837 16.8941 10.8811 16.3507 9.9427 15.8173C8.92343 15.238 7.92483 14.6704 7.37513 13.9702C5.66362 12.0142 7.09728 8.89128 9.65343 8.78015C11.1326 8.73586 11.3835 7.80216 11.6663 6.74976C11.7384 6.48164 11.8125 6.20582 11.9095 5.93504C12.2089 5.26974 12.9065 5.2461 13.561 5.22392L13.5655 5.22376H25.3126C26.7983 5.12425 26.9927 5.88856 27.222 6.78972C27.3511 7.29751 27.4914 7.84875 27.8799 8.31337C28.2454 8.63586 28.7172 8.70881 29.1939 8.78253C29.4565 8.82313 29.7206 8.86396 29.9693 8.94685C31.8364 9.40251 32.8033 11.6586 31.8919 13.3368C31.386 14.4499 30.1018 15.1618 28.8376 15.8625C28.0546 16.2966 27.2792 16.7264 26.7011 17.2447C26.6789 17.2646 26.6567 17.2842 26.6352 17.3043C26.6313 17.3079 26.6279 17.3119 26.624 17.3155ZM29.6693 20.5541L29.6504 20.5709L29.5302 20.6819C29.3325 20.8704 29.2175 20.9946 29.0553 21.1696C28.9006 21.3366 28.703 21.55 28.3498 21.9097C28.2869 21.9737 28.2205 22.0407 28.1505 22.11C29.0347 22.2898 29.9036 22.6207 30.7129 23.1523C31.9933 23.9935 32.7763 25.1084 33.2627 26.1083C33.7248 27.0585 33.9718 28.0161 34.1284 28.7064C34.2057 29.0472 34.2749 29.3897 34.3329 29.6769L34.3415 29.7195C34.405 30.034 34.4576 30.2923 34.514 30.5388L34.5203 30.5661L34.5262 30.5935C34.6088 30.977 34.7014 31.386 34.7928 31.7894C34.9589 32.5226 35.1207 33.2373 35.2108 33.747C35.2883 34.1857 35.3855 34.8321 35.3621 35.5305C35.338 36.2493 35.1759 37.4096 34.3702 38.5236C33.5316 39.6831 32.4186 40.2144 31.6122 40.4588C30.8747 40.6823 30.1736 40.7342 29.7296 40.7546C29.1666 40.7805 28.3798 40.768 27.6065 40.7558C27.2726 40.7505 26.9412 40.7452 26.6315 40.7431H11.305L11.2561 40.7421C10.8279 40.7327 10.4369 40.7353 10.0552 40.7403C9.99429 40.7411 9.93031 40.742 9.8642 40.743C9.5557 40.7475 9.20087 40.7526 8.89096 40.7483C8.53202 40.7432 7.95738 40.7257 7.35068 40.6063C6.75784 40.4896 5.66777 40.1902 4.69563 39.2692L4.6016 39.1802L4.51291 39.0858C3.289 37.7829 3.08611 36.2844 3.08114 35.4159C3.07877 35.0009 3.11965 34.6469 3.1457 34.4454C3.15874 34.3445 3.17263 34.2492 3.18137 34.1892L3.18239 34.1822C3.19275 34.1111 3.19711 34.0807 3.20038 34.0556L3.21685 33.9294L3.24052 33.8042C3.41356 32.8896 3.80621 31.2288 4.13541 29.8364C4.27001 29.2671 4.394 28.7426 4.48803 28.3324C4.69658 27.1132 5.14218 25.8761 5.99544 24.7909C6.91072 23.6269 8.03913 22.9627 9.05286 22.578C9.64408 22.3537 10.2284 22.2135 10.7259 22.1198C10.5292 21.9274 10.3567 21.7489 10.2108 21.5964C10.1242 21.506 10.0484 21.4264 9.98054 21.3551C9.74848 21.1113 9.60827 20.964 9.44308 20.8099L9.35389 20.7266L9.2694 20.6386C9.25874 20.6288 9.15029 20.5287 8.84967 20.3341C8.54138 20.1346 8.19686 19.9386 7.71244 19.6631C7.68316 19.6464 7.65338 19.6295 7.62306 19.6122C7.15003 19.3431 6.51315 18.9797 5.9124 18.5669C5.34719 18.1785 4.6021 17.6064 3.95648 16.813C0.201602 12.4044 2.74901 6.09816 7.65389 4.64038C7.67669 4.57189 7.70029 4.50328 7.7246 4.43545L7.7837 4.27053L7.85559 4.11077C8.63074 2.38822 10.0334 1.48391 11.275 1.09554C12.1819 0.811884 13.0881 0.789178 13.3597 0.782374C13.3803 0.781856 13.3973 0.78143 13.4104 0.780988L13.4901 0.778284H25.1914C26.2977 0.727449 27.7288 0.884665 29.0532 1.79128C30.3991 2.71259 30.9731 3.96071 31.2322 4.6823C35.8036 5.93836 37.9884 11.2204 35.8703 15.3228C34.7777 17.584 32.6721 18.7948 31.732 19.3355L31.7201 19.3423C31.3358 19.5633 31.104 19.6904 30.9044 19.7998C30.6901 19.9173 30.513 20.0144 30.2242 20.1855C30.0358 20.2971 29.9002 20.3843 29.8005 20.4544C29.7003 20.5248 29.665 20.5581 29.6693 20.5541Z" fill="#3AE660"/>
</g>
<path d="M26.6236 17.3155C28.1128 15.9152 31.058 15.1706 31.8915 13.3368C32.8028 11.6587 31.8359 9.40258 29.9688 8.94692C29.2687 8.71353 28.4463 8.81355 27.8795 8.31344C26.8014 7.02425 27.635 5.06824 25.3122 5.22383C22.8672 5.22383 16.01 5.22383 13.565 5.22383C12.9093 5.24606 12.2091 5.26829 11.9091 5.93511C11.4312 7.26875 11.509 8.72464 9.653 8.78021C7.09685 8.89135 5.66318 12.0143 7.37469 13.9703C8.43049 15.3151 11.1422 16.1708 12.4759 17.56C13.1427 18.1824 13.6873 18.8714 14.4097 19.4605C15.5544 20.3718 17.0103 20.9719 17.2103 22.1611C17.4104 24.0838 15.5433 25.6841 13.7984 26.1509C11.4979 26.5844 9.29736 26.2621 8.85281 29.185C8.49718 30.752 7.84147 33.3971 7.60808 34.6307C7.5414 35.1419 7.40803 35.6754 7.75256 36.0421C8.17488 36.4422 9.3307 36.2533 11.3534 36.2977C16.0878 36.2977 21.7447 36.2977 26.6458 36.2977C31.7804 36.3311 31.3247 36.8423 30.18 31.53C29.6132 29.0516 29.5354 26.451 26.4902 26.3843C24.2564 26.4065 21.1557 24.2616 21.6891 21.9833C21.9781 21.0386 22.9005 20.5385 23.6896 20.0273C24.7899 19.3716 25.6234 18.2602 26.4902 17.4378L26.6347 17.3044L26.6236 17.3155ZM23.0895 32.4746C22.7227 33.197 22.3226 33.0525 21.478 33.0636C20.1332 33.0636 16.9214 33.0636 16.1656 33.0636C15.1987 32.9303 15.3654 31.93 15.3543 31.0854C15.3321 30.5964 15.3543 29.9851 15.7989 29.7406C16.4768 29.485 16.8991 29.6851 17.8105 29.6295C19.2886 29.674 21.3002 29.5406 22.556 29.6851C23.4562 30.0741 23.045 31.5411 23.1006 32.3412L23.0672 32.4746H23.0895ZM13.9873 7.50214C16.688 7.27986 23.2451 7.47991 24.6343 7.43546C24.8899 7.45768 24.9343 7.55771 24.9566 7.83555C24.8343 10.225 25.4122 13.6925 24.4009 15.9819C23.1228 18.9715 18.9996 20.1051 16.3768 18.2157C14.3763 16.871 13.7762 14.6594 13.9095 12.2921C13.9318 11.1808 13.8429 8.4468 13.954 7.56882L13.9873 7.51325V7.50214ZM29.402 10.5806C30.18 10.8251 30.6357 12.0476 30.0466 12.7367C29.4465 13.4146 28.2462 13.8369 27.5016 14.3259C26.9793 14.6594 27.1793 14.4149 27.1682 13.9036C27.1793 13.2813 27.1682 12.3477 27.1682 11.7253C27.1682 11.4697 27.1682 11.403 27.3127 11.2363C27.7239 10.6473 28.7019 10.3695 29.3354 10.5695L29.3909 10.5917L29.402 10.5806ZM10.342 10.5139C10.7533 10.5473 11.4645 10.9807 11.6535 11.403C11.709 11.8031 11.709 13.3146 11.6535 13.0145C11.4534 12.6367 10.5532 11.003 10.2865 10.5028H10.342V10.5139Z" fill="#191919"/>
<defs>
<filter id="filter0_ddd_2644_1621" x="0.15625" y="0.769775" width="37.5273" height="43.0002" filterUnits="userSpaceOnUse" color-interpolation-filters="sRGB">
<feFlood flood-opacity="0" result="BackgroundImageFix"/>
<feColorMatrix in="SourceAlpha" type="matrix" values="0 0 0 0 0 0 0 0 0 0 0 0 0 0 0 0 0 0 127 0" result="hardAlpha"/>
<feOffset dy="1"/>
<feGaussianBlur stdDeviation="0.5"/>
<feColorMatrix type="matrix" values="0 0 0 0 0.560784 0 0 0 0 0.560784 0 0 0 0 0.560784 0 0 0 0.09 0"/>
<feBlend mode="normal" in2="BackgroundImageFix" result="effect1_dropShadow_2644_1621"/>
<feColorMatrix in="SourceAlpha" type="matrix" values="0 0 0 0 0 0 0 0 0 0 0 0 0 0 0 0 0 0 127 0" result="hardAlpha"/>
<feOffset dx="-1" dy="1"/>
<feGaussianBlur stdDeviation="0.5"/>
<feColorMatrix type="matrix" values="0 0 0 0 0.560784 0 0 0 0 0.560784 0 0 0 0 0.560784 0 0 0 0.05 0"/>
<feBlend mode="normal" in2="effect1_dropShadow_2644_1621" result="effect2_dropShadow_2644_1621"/>
<feColorMatrix in="SourceAlpha" type="matrix" values="0 0 0 0 0 0 0 0 0 0 0 0 0 0 0 0 0 0 127 0" result="hardAlpha"/>
<feOffset dx="-1" dy="2"/>
<feGaussianBlur stdDeviation="0.5"/>
<feColorMatrix type="matrix" values="0 0 0 0 0.560784 0 0 0 0 0.560784 0 0 0 0 0.560784 0 0 0 0.01 0"/>
<feBlend mode="normal" in2="effect2_dropShadow_2644_1621" result="effect3_dropShadow_2644_1621"/>
<feBlend mode="normal" in="SourceGraphic" in2="effect3_dropShadow_2644_1621" result="shape"/>
</filter>
</defs>
</svg>
