<svg width="43" height="40" viewBox="0 0 43 40" fill="none" xmlns="http://www.w3.org/2000/svg">
<g filter="url(#filter0_ddd_2644_1658)">
<path d="M39.4895 6.19931C37.0092 2.84299 33.2201 0.837646 29.3361 0.837646C29.2727 0.837646 29.1989 0.837646 29.1355 0.837646C28.9772 0.837646 28.8189 0.837646 28.6606 0.837646C27.1618 0.837646 25.7581 1.06984 24.5232 1.27038C23.5206 1.4287 22.5707 1.58701 21.7685 1.58701C21.4308 1.58701 21.1352 1.55535 20.8714 1.50258C20.8186 1.50258 20.7764 1.48147 20.7236 1.47091L20.2592 1.39703C18.7288 1.13317 17.1351 0.86931 15.4569 0.86931C13.8104 0.86931 12.2906 1.12262 10.7919 1.63979C7.25612 2.84299 4.52252 5.40773 3.066 8.8907C1.64115 12.2998 1.6517 16.2788 3.05545 19.7196C3.05545 19.7196 3.05545 19.7196 3.05545 19.7301C2.97101 20.5006 2.81269 21.9255 3.48818 23.5297C3.93147 24.6696 4.7125 25.7356 5.74683 26.6117C5.81016 26.6644 5.86293 26.7066 5.92626 26.7594C6.00014 26.865 6.11624 27.076 6.21123 27.2344C6.48565 27.7199 6.86561 28.3848 7.43555 29.0497C7.50943 29.1447 7.59387 29.2292 7.6783 29.3136C8.35379 29.9785 9.05038 30.4218 9.557 30.749C9.68365 30.8334 9.85252 30.939 9.95807 31.0129C10.718 31.9205 11.5623 32.5433 12.1851 33.0077C12.4595 33.2082 12.8289 33.4826 12.9344 33.6093C12.9661 33.6409 12.9978 33.6831 13.0294 33.7148L13.1561 33.852C13.4621 34.2003 13.9265 34.7175 14.5704 35.1924C16.4491 36.6489 18.5283 36.6489 19.2143 36.6489C19.531 36.6489 19.8476 36.6384 20.1642 36.6173C20.3542 36.6173 20.5442 36.5962 20.7236 36.5962H20.7342C20.7342 36.5962 20.8186 36.5962 20.8608 36.5962C20.8925 36.5962 20.9242 36.5962 20.9558 36.5962C21.0614 36.5962 21.1669 36.6173 21.283 36.6278C21.6313 36.6595 22.0535 36.7017 22.539 36.7017C23.0984 36.7017 23.6261 36.6489 24.1327 36.5434C25.4942 36.2479 26.518 35.6041 27.183 35.1713C27.3202 35.0869 27.489 34.9813 27.5946 34.918C29.6738 34.5486 31.1514 33.3982 32.2174 32.3744C32.3124 32.3216 32.4707 32.2583 32.5868 32.195C33.1779 31.9205 34.0434 31.5195 34.8772 30.7912C36.2176 29.683 36.7559 28.3215 37.083 27.4982C37.1042 27.4349 37.1358 27.361 37.1569 27.2977C37.1886 27.266 37.2203 27.2344 37.2519 27.2027C37.653 26.8122 38.244 26.2422 38.7295 25.3979C39.7639 23.7619 39.785 22.1049 39.7955 21.1128C39.7955 21.0178 39.7955 20.9017 39.7955 20.8067C39.8905 20.6273 39.9855 20.4478 40.0805 20.2684C40.6082 19.2869 41.1993 18.1892 41.5054 16.9649V16.9121C42.603 13.3236 41.8537 9.40787 39.4578 6.16765L39.4895 6.19931Z" fill="#3AE660"/>
</g>
<path d="M37.5059 15.7407C39.0996 10.5479 34.3395 4.8907 29.1045 5.05957C26.0543 4.92236 23.0674 6.25222 20.0277 5.62951C17.2202 5.16511 14.8666 4.67961 12.1541 5.62951C6.72906 7.45543 4.85037 13.8303 7.21457 18.6854C7.51009 19.8464 6.89793 20.8068 7.39399 21.9256C7.58397 22.4428 7.98504 22.9599 8.4811 23.3821C9.57877 24.1631 9.84263 25.3558 10.6553 26.3163C11.3836 27.0445 12.4179 27.3928 13.0829 28.1527C13.9378 29.2715 15.2676 29.8098 16.1542 30.8652C16.4497 31.1924 16.7453 31.5513 17.1041 31.8151C18.3073 32.7756 19.8694 32.269 21.252 32.3956C21.9064 32.4378 22.5819 32.5539 23.2362 32.4167C24.5767 32.1318 25.4105 30.9708 26.8142 30.7702C27.8802 30.5908 28.6929 29.9153 29.4317 29.1976C30.2233 28.4588 31.3632 28.2899 32.1548 27.5722C32.9886 26.9179 33.1047 25.7674 33.6218 24.9547C34.044 24.3215 34.7617 23.8993 35.1311 23.2132C35.9122 22.0628 35.3317 20.5957 35.8066 19.382C36.3554 18.2526 37.1998 16.9544 37.4426 15.899L37.4848 15.7301L37.5059 15.7407ZM35.68 14.3475C35.4689 15.4557 34.5506 19.6564 32.6508 17.5455C29.7906 14.9702 26.4026 11.9094 25.4738 11.0439C24.7561 10.2946 23.5107 9.94628 22.4974 10.3262C21.3787 10.4951 18.2334 12.5532 17.7901 10.3474C17.9485 8.73252 20.3338 8.70086 21.5581 8.2048C24.4289 7.52931 27.4158 6.83272 30.3288 7.19157C33.3052 7.79317 36.0388 11.1284 35.7011 14.1997L35.68 14.3475ZM9.30435 21.0496C9.19881 20.4902 9.58932 19.8042 10.0748 19.4875C10.6131 19.0548 11.3836 18.3265 11.9324 17.9466C12.5129 17.6088 13.3573 17.7777 13.6528 18.4426C13.7267 18.6115 13.7161 18.8648 13.6845 18.9598C13.3256 19.4347 12.344 20.2685 11.7847 20.8596C11.3519 21.2818 10.9508 21.6723 10.7292 21.8834C10.5709 22.0311 10.592 22.0734 10.3915 22.0523C9.90596 22.0206 9.45211 21.5984 9.32546 21.1551L9.30435 21.0496ZM11.9535 23.6354C12.6501 22.9177 14.4022 21.2501 15.2043 20.448C15.9748 19.5614 17.4841 20.944 16.9352 21.8728C16.2809 22.7594 15.1937 23.5932 14.3811 24.4481C13.9589 24.7964 13.7056 25.2291 13.3256 25.3875C12.4918 25.4613 11.5419 24.5642 11.9219 23.6988L11.9535 23.6249V23.6354ZM14.8982 26.8756C15.8059 26.0524 17.5368 24.1843 18.5184 23.4032C19.0145 23.4982 19.6266 24.2265 19.4894 24.7753C18.7928 25.588 16.703 27.5089 16.4286 27.815C15.7531 28.0472 15.0143 27.34 14.9193 26.9284V26.8756H14.8982ZM18.1596 30.0209C18.0751 29.947 17.8113 29.6093 17.7901 29.4932C18.3073 28.7754 19.6055 27.72 20.2388 27.034C20.5449 26.7701 20.6398 26.5801 20.7454 26.6012C21.062 26.6962 21.7375 27.1395 21.5898 27.7728C21.3998 28.5221 20.8509 29.0499 20.3654 29.6304C19.8588 30.2847 18.9089 30.6436 18.2545 30.1053L18.1596 30.0209ZM22.9407 30.3797C22.7824 30.4008 22.6241 30.4114 22.4658 30.4008L22.5397 30.3058L22.5608 30.2742C22.8774 29.8837 23.1518 29.4509 23.3629 28.9865L23.8273 29.4826C23.7851 29.5776 23.7429 29.6831 23.6901 29.7676C23.6162 29.9153 23.5107 30.0525 23.3735 30.1581C23.2362 30.2636 23.0885 30.3375 22.9196 30.3692L22.9407 30.3797ZM29.7484 26.3268C28.8829 25.9152 27.6058 23.4138 26.4554 24.6803C25.4738 25.6408 28.2813 27.34 27.3208 28.2899C26.9514 28.7121 26.3076 28.7438 25.8326 28.4272C24.64 27.5933 23.6162 26.8334 22.7507 25.6513C21.8219 24.8492 21.5053 23.7937 20.8826 22.8016C20.1121 21.8939 19.215 21.4084 18.8456 20.2791C18.4445 19.2025 17.3152 18.506 16.2914 18.0838C15.3521 17.6088 14.951 16.5323 13.98 16.089C12.7029 15.4135 11.1197 15.7618 10.0537 16.6695C9.8954 16.7856 9.68431 16.9017 9.50489 16.9756C9.10382 17.1128 8.76607 16.8806 8.58665 16.3001C6.80294 11.35 11.6474 5.9778 16.7875 7.31822C17.1885 7.53987 16.2386 8.17313 15.922 8.98583C15.3098 10.4212 15.922 12.0994 17.2519 12.9649C19.215 14.3369 21.6531 12.4688 23.6162 12.3421C23.9117 12.3633 24.1123 12.5321 24.3234 12.7221C25.7165 13.9675 30.2022 17.8938 32.6508 20.0575C33.0413 20.4163 33.4424 20.8596 33.5057 21.3557C33.5796 21.8623 33.3052 22.4639 32.9041 22.4955C31.8909 22.4955 31.1099 20.6063 29.97 20.9229C27.933 21.7989 31.1521 23.7726 31.1838 24.8175C31.2893 25.5247 30.6666 26.5168 29.8961 26.3796L29.7695 26.3374L29.7484 26.3268Z" fill="#191919"/>
<defs>
<filter id="filter0_ddd_2644_1658" x="0" y="0.837646" width="43" height="38.864" filterUnits="userSpaceOnUse" color-interpolation-filters="sRGB">
<feFlood flood-opacity="0" result="BackgroundImageFix"/>
<feColorMatrix in="SourceAlpha" type="matrix" values="0 0 0 0 0 0 0 0 0 0 0 0 0 0 0 0 0 0 127 0" result="hardAlpha"/>
<feOffset dy="1"/>
<feGaussianBlur stdDeviation="0.5"/>
<feColorMatrix type="matrix" values="0 0 0 0 0.560784 0 0 0 0 0.560784 0 0 0 0 0.560784 0 0 0 0.09 0"/>
<feBlend mode="normal" in2="BackgroundImageFix" result="effect1_dropShadow_2644_1658"/>
<feColorMatrix in="SourceAlpha" type="matrix" values="0 0 0 0 0 0 0 0 0 0 0 0 0 0 0 0 0 0 127 0" result="hardAlpha"/>
<feOffset dx="-1" dy="1"/>
<feGaussianBlur stdDeviation="0.5"/>
<feColorMatrix type="matrix" values="0 0 0 0 0.560784 0 0 0 0 0.560784 0 0 0 0 0.560784 0 0 0 0.05 0"/>
<feBlend mode="normal" in2="effect1_dropShadow_2644_1658" result="effect2_dropShadow_2644_1658"/>
<feColorMatrix in="SourceAlpha" type="matrix" values="0 0 0 0 0 0 0 0 0 0 0 0 0 0 0 0 0 0 127 0" result="hardAlpha"/>
<feOffset dx="-1" dy="2"/>
<feGaussianBlur stdDeviation="0.5"/>
<feColorMatrix type="matrix" values="0 0 0 0 0.560784 0 0 0 0 0.560784 0 0 0 0 0.560784 0 0 0 0.01 0"/>
<feBlend mode="normal" in2="effect2_dropShadow_2644_1658" result="effect3_dropShadow_2644_1658"/>
<feBlend mode="normal" in="SourceGraphic" in2="effect3_dropShadow_2644_1658" result="shape"/>
</filter>
</defs>
</svg>
