<svg width="147" height="46" viewBox="0 0 147 46" fill="none" xmlns="http://www.w3.org/2000/svg">
<g filter="url(#filter0_dddd_2613_4436)">
<path d="M143.532 11.4876V11.4799C144.207 10.2409 144.373 8.7318 144.037 6.8637L144.022 6.77493L143.999 6.68615C143.539 4.78718 142.038 3.57523 140.077 3.52506H140.012C139.282 3.5212 138.286 3.51348 137.14 3.50576C134.913 3.49032 132.142 3.46716 129.656 3.46716C126.923 3.46716 125.094 3.49032 124.06 3.54435C123.384 3.57909 122.844 3.73348 122.4 3.94962C121.983 3.73734 121.585 3.63313 121.3 3.58295L121.099 3.54821L120.895 3.54049C119.825 3.49804 117.822 3.47874 114.592 3.47874C112.361 3.47874 109.921 3.49032 107.795 3.49804C106.162 3.50576 104.719 3.50962 103.7 3.50962H103.148C103.067 3.50576 102.986 3.5019 102.904 3.5019C101.835 3.5019 100.851 3.90717 100.129 4.64437C99.9711 4.80648 99.8322 4.97245 99.7125 5.14613C98.9869 4.30858 97.9255 3.57137 96.3816 3.52506C95.8605 3.5019 95.3047 3.49418 94.6331 3.49418C94.2742 3.49418 93.9191 3.49418 93.5601 3.49804C93.2166 3.49804 92.8692 3.5019 92.5219 3.5019C92.1745 3.5019 91.8387 3.5019 91.4913 3.49032H91.1247C90.3913 3.47874 89.6503 3.47488 88.9246 3.47488C87.9829 3.47488 87.2186 3.48646 86.5239 3.50962C85.9372 3.52891 85.0611 3.60611 84.2197 4.01138L84.127 4.05769C82.7144 4.7756 82.1315 6.0686 81.7842 6.8444C81.7417 6.9409 81.6993 7.03353 81.6568 7.11844L81.6375 7.15704C81.5835 7.27283 81.5217 7.40406 81.4561 7.54687C81.4098 7.65108 81.3596 7.75915 81.3094 7.85951L81.294 7.89038C81.2863 7.27283 81.2168 5.90263 80.1245 4.79104L79.9701 4.63279L79.7926 4.4977C78.569 3.56751 77.2181 3.45944 76.3034 3.45944C76.0371 3.45944 75.7669 3.47102 75.5006 3.4826C75.3307 3.49032 75.1609 3.49804 74.9988 3.49804C74.9525 3.49804 74.91 3.49804 74.8637 3.49804L74.6399 3.47874L74.416 3.49418C74.3504 3.49804 74.2809 3.49804 74.2076 3.49804C74.0995 3.49804 73.9876 3.49804 73.8756 3.49804C73.7251 3.49804 73.5746 3.49418 73.424 3.49418C72.6984 3.49418 71.0002 3.49418 69.7033 4.69841L69.6184 4.77946L69.5373 4.86437C69.4408 4.96473 69.3559 5.06894 69.2749 5.17315C68.9661 4.91069 68.6303 4.65595 68.2713 4.41665L68.171 4.35103C66.7545 3.49032 65.2685 3.49032 64.1839 3.49032H63.2421H61.2737C60.6407 3.49032 60.0077 3.49032 59.3786 3.5019H59.34C58.6877 3.5212 57.7073 3.62155 56.7463 4.26226L56.642 4.33173L56.4529 4.48226L56.3989 4.52858C56.3641 4.55946 56.3294 4.59419 56.2985 4.62507C56.0477 4.36261 55.7891 4.10787 55.5112 3.87629C53.7434 2.33627 51.1574 1.45239 48.4054 1.45239C47.7531 1.45239 47.1086 1.50257 46.4872 1.60678C43.1138 2.02749 40.2923 3.67944 38.5284 6.26931C38.4821 6.33878 38.4397 6.40826 38.3972 6.47773C38.3856 6.46615 38.3779 6.45071 38.3663 6.43913L38.3123 6.38124C36.8881 4.93771 34.854 4.06155 32.0673 3.69488C30.4501 3.5019 28.9525 3.47488 27.6981 3.47488C27.1963 3.47488 26.6907 3.47874 26.1851 3.48646C25.6911 3.49032 25.1893 3.49804 24.6837 3.49804H24.4791C24.1433 3.49804 23.7921 3.5019 23.4254 3.5019C22.9159 3.5019 22.3872 3.5019 21.8622 3.49804C21.3412 3.49804 20.824 3.49418 20.3415 3.49418C19.9787 3.49418 19.6313 3.49418 19.311 3.49804L19.1141 3.50576C18.3229 3.53663 16.8446 3.59453 15.6327 4.7563L15.5786 4.80648L15.5246 4.86437C14.1969 6.19211 14.2123 8.10653 14.2239 9.65041C14.2239 9.83182 14.2239 10.0055 14.2239 10.156V12.8038C14.2239 14.3014 14.2239 15.8028 14.2239 16.9298C14.1158 18.8481 14.826 20.0485 15.4513 20.72C16.9064 22.2871 19.006 22.2871 19.6969 22.2871C19.8204 22.2871 19.944 22.2871 20.0713 22.2832H26.3588C26.7062 22.2755 27.0651 22.2755 27.4356 22.2755H28.03C30.9596 22.2755 35.3712 22.2755 38.3162 19.2958C39.8176 21.9204 42.2222 23.7036 45.2289 24.3405C45.557 24.4099 45.8542 24.4447 46.1398 24.4447C46.2401 24.4447 46.3366 24.4331 46.437 24.4254C47.2282 24.8345 48.0735 25.0506 48.9111 25.0506C49.2005 25.0506 49.4977 25.0275 49.7949 24.9812L49.8528 24.9734C51.0686 24.8268 52.1378 24.3173 52.983 23.4875C53.1915 23.4411 53.3999 23.3755 53.6083 23.2906L53.7125 23.2443C54.7817 22.7464 55.7234 22.0748 56.5301 21.2604C57.3214 21.9204 58.3596 22.2678 59.6179 22.2755C59.9807 22.2794 60.3589 22.2832 60.7372 22.2832H61.8256C61.8758 22.2755 61.9298 22.2755 61.9839 22.2755C62.1074 22.2755 62.2386 22.2755 62.3737 22.2832C62.559 22.2871 62.7481 22.2909 62.9372 22.2909C63.659 22.2909 65.7741 22.2909 67.0826 20.639C67.9896 21.3839 69.1899 22.1288 70.7801 22.2331H70.8882C71.8184 22.2678 73.0497 22.2987 74.3118 22.2987C75.4581 22.2987 76.4809 22.2716 77.4381 22.2176H77.5385L77.6388 22.1983C78.0711 22.1443 78.4725 22.0323 78.8431 21.8702C79.7308 22.2562 80.607 22.2716 81.1782 22.2794H81.2979L83.1582 22.2832C84.0189 22.2832 84.8797 22.2832 85.6786 22.2678H85.752C86.1649 22.2485 86.7786 22.206 87.4309 22.013C88.4962 21.7197 89.2218 21.1215 89.7043 20.7239C89.7583 20.6776 89.8239 20.6236 89.8818 20.5811C89.9629 20.5734 90.1018 20.5657 90.3296 20.5657H91.0166C91.1324 20.5695 91.2482 20.5657 91.3601 20.5657H92.0317C92.352 20.5657 92.5875 20.5734 92.7264 20.5888C92.7573 20.6158 92.7882 20.6429 92.8191 20.6699C93.0082 20.8358 93.2707 21.0597 93.5949 21.2797C94.8763 22.1559 96.2619 22.2755 97.3427 22.2755C97.3427 22.2755 98.3655 22.2755 98.8286 22.2755C99.3111 22.2755 99.8013 22.2755 100.268 22.2755C100.878 22.2755 101.457 22.2755 101.951 22.2639H101.97C103.935 22.2639 104.908 21.2025 105.313 20.5734C105.413 20.4151 105.525 20.2144 105.618 19.9713C105.795 20.3109 106.012 20.6274 106.278 20.9092C107.579 22.2794 109.389 22.2794 109.983 22.2794C110.126 22.2794 110.273 22.2794 110.427 22.2716H112.349C112.689 22.2716 113.032 22.2716 113.368 22.2716C113.438 22.2716 113.511 22.2716 113.584 22.2716C113.658 22.2716 113.719 22.2639 113.785 22.2639H127.761C128.151 22.2639 128.56 22.2639 128.981 22.2716C130.841 22.2794 132.941 22.2909 134.867 22.2909C137.426 22.2909 139.186 22.2717 140.239 22.2331C141.841 22.2022 143.211 21.2565 143.821 19.7435C144.145 18.9407 144.196 18.1456 144.203 17.5975C144.242 16.6558 144.192 15.3821 143.509 14.2512C143.779 13.3441 143.779 12.3638 143.543 11.4838L143.532 11.4876Z" fill="url(#paint0_radial_2613_4436)"/>
<ellipse cx="48.2139" cy="13.2627" rx="7.82708" ry="8.04925" transform="rotate(2.46465 48.2139 13.2627)" fill="#3AE660"/>
<path d="M55.2373 12.0699C55.577 14.6945 54.971 17.1802 52.8018 18.8051C52.2962 19.137 52.3001 19.797 52.165 20.3065C52.1573 20.4532 52.2113 20.5227 52.4081 20.4416C57.7345 17.9637 57.6998 9.73865 53.4966 6.22631C51.9218 4.83682 49.2277 4.27716 46.9196 4.66699C41.2073 5.3463 38.7178 10.3176 40.0339 15.3314C40.7788 18.3265 42.755 20.6578 45.8775 21.3178C46.661 21.4876 46.1824 21.0322 45.9508 20.5227C45.8235 20.2371 45.6112 20.0248 45.2754 19.9013C40.6129 18.3844 39.536 10.8232 42.7627 7.82037C45.1789 5.33086 50.6558 5.09542 52.825 7.2337C54.0794 8.27196 54.9633 10.0937 55.2219 11.9541L55.2373 12.0699Z" fill="#191919"/>
<path d="M52.5152 14.1774C52.5307 14.1118 52.631 15.9413 52.2219 16.5357C52.0675 16.4778 51.8437 16.0726 51.6314 15.9838C51.1643 15.6519 50.4696 15.6441 49.9408 15.6519C48.5513 15.7445 46.9302 15.8796 45.8187 16.6206C45.6643 16.7441 45.506 16.9217 45.3864 17.1456C45.286 17.3192 45.2436 17.5585 45.1702 17.5624C44.8692 17.354 44.6916 16.802 44.5334 16.474C44.406 16.088 44.186 15.5708 44.2439 15.3508C44.46 15.3161 50.8903 14.3974 52.5075 14.1736L52.5152 14.1813V14.1774Z" fill="#191919"/>
<path d="M44.6161 7.80493C44.5158 7.54247 44.0912 7.42668 43.906 7.68528C43.794 7.85511 43.7902 8.06739 43.7824 8.26423C43.7438 8.42248 43.6744 8.54213 43.5316 8.63863C43.1649 8.88565 42.9024 9.3025 42.8638 9.7618C42.7326 10.6997 43.5277 11.6145 44.5003 11.5527C44.8439 11.5488 45.2761 11.5527 45.4614 11.8769C45.9941 12.7569 44.4347 13.3706 44.1221 12.4327C44.0449 12.2475 43.9716 12.039 43.767 11.9618C43.2845 11.7959 43.0954 12.4096 43.273 12.7724C43.4698 13.4748 44.014 13.6022 44.5158 13.938C44.7011 14.185 44.8053 14.8142 45.2723 14.625C45.6004 14.5092 45.4961 14.0345 45.6081 13.7836C45.6505 13.6948 45.72 13.6176 45.8011 13.552C46.4881 13.0966 46.6734 12.1239 46.2527 11.4022C45.967 10.8927 45.4112 10.6264 44.8323 10.638C44.2803 10.7151 43.5972 10.4025 43.8056 9.75408C43.96 9.23302 44.8168 9.10565 45.114 9.56882C45.2684 9.86215 45.419 10.3909 45.8551 10.2211C46.5421 9.76566 45.7779 8.65021 45.1642 8.45722C44.8825 8.37617 44.6779 8.18704 44.6432 7.88598L44.6123 7.80107L44.6161 7.80493Z" fill="#191919"/>
<path d="M50.4256 6.63494C50.8424 6.62336 50.8579 7.19074 51.047 7.3953C51.1705 7.52653 51.4021 7.55741 51.5989 7.6732C52.0737 7.9318 52.5021 8.63813 52.2975 9.13217C52.1856 9.39077 51.8151 9.44481 51.6337 9.22866C51.4561 9.03568 51.4445 8.70374 51.2014 8.53778C51.0586 8.4297 50.8733 8.39497 50.6919 8.40655C49.9817 8.41041 49.7308 9.39463 50.3985 9.68025C50.7729 9.81534 51.2438 9.69569 51.6221 9.83078C52.8765 10.2013 53.0695 11.9922 52.0273 12.6599C51.6221 12.8915 51.927 13.5322 51.4947 13.7291C51.0238 13.9182 50.9312 13.3045 50.7382 13.0459C50.5915 12.8684 50.3021 12.8413 50.0898 12.6831C49.6652 12.4013 49.3603 11.8224 49.4529 11.3747C49.6459 10.8111 50.2364 11.0582 50.3445 11.5445C50.4642 11.9382 50.9273 12.1041 51.3056 11.9652C51.7186 11.8533 51.9193 11.3361 51.6838 10.9848C51.3712 10.4792 50.6378 10.7648 50.1631 10.5834C49.4105 10.3711 49.0013 9.55674 49.0901 8.87743C49.1055 8.27532 49.588 7.92408 49.9547 7.54969C50.0782 7.29881 49.9392 6.74301 50.3368 6.64652L50.4256 6.63494Z" fill="#191919"/>
<path d="M49.4557 21.9082C51.6558 21.6689 51.9761 19.0057 51.7793 17.5274C51.8179 16.7053 51.3586 16.2383 50.5519 16.2344C49.448 16.2267 45.9859 16.3772 45.7852 17.6548C45.8778 19.326 46.8736 22.3096 49.3361 21.9236L49.4557 21.9082Z" fill="#191919"/>
<path d="M17.7558 6.98628C18.1494 6.60803 18.7824 6.60803 19.3305 6.58487C20.8165 6.56943 22.8892 6.60031 24.4987 6.58487C26.9573 6.58873 29.2538 6.47294 31.6893 6.76242C33.3567 6.98242 35.0279 7.46102 36.1087 8.55332C38.1543 10.7341 38.1697 14.8446 36.1588 17.091C33.7813 19.538 29.551 19.1289 26.3011 19.1945C24.3057 19.1945 21.8586 19.1945 20.0291 19.1945C18.3617 19.2486 17.1768 18.9398 17.3157 17.0254C17.3157 15.2306 17.3157 12.4207 17.3157 10.2091C17.3312 9.21719 17.2077 7.52278 17.7287 7.01716L17.7596 6.98628H17.7558ZM29.6321 13.9106C29.9794 13.3471 29.9524 12.3436 29.5279 11.8109C29.1342 11.3748 28.1885 11.4828 27.2699 11.4635C26.5327 11.5099 25.672 11.3323 25.0004 11.6565C24.3481 12.1197 24.3713 13.3201 24.792 13.9415C25.1703 14.4085 26.1197 14.2541 27.1001 14.285C27.845 14.2464 29.1728 14.4278 29.5973 13.9492L29.6321 13.9106Z" fill="#191919"/>
<path d="M58.4592 6.83225C58.7178 6.65856 59.0227 6.60453 59.4241 6.59295C60.9178 6.56979 62.4309 6.58909 63.9477 6.58137C64.8856 6.58137 65.8274 6.54277 66.5646 6.99436C67.7765 7.79718 68.6874 8.97825 69.8067 9.90072C70.3317 10.3484 70.9454 10.6765 71.2001 9.96247C71.5398 9.02456 71.0689 7.75472 71.8022 6.96348C72.3928 6.4154 73.7244 6.64312 74.6237 6.58137C75.6696 6.66242 77.0591 6.30733 77.9199 6.96348C78.1785 7.22594 78.2016 7.64665 78.2016 8.01718C78.2055 10.3214 78.2055 15.4587 78.2016 17.7668C78.2402 18.4461 78.0202 19.0405 77.2521 19.137C75.1988 19.2566 73.0605 19.218 70.9801 19.1524C69.6755 19.0675 68.7608 17.9868 67.8113 17.1454C67.2014 16.6629 66.4102 15.6478 65.646 15.6285C64.6232 15.9412 65.3256 17.9057 64.7081 18.6468C64.2025 19.4149 62.6509 19.1409 61.6551 19.191C60.9912 19.191 60.3042 19.191 59.6557 19.1872C59.1964 19.1872 58.6869 19.1254 58.3975 18.7935C58.1504 18.5156 58.1234 18.0833 58.1273 17.7012C58.1273 15.3468 58.1273 10.2134 58.1273 7.95542C58.1427 7.55401 58.1157 7.13331 58.4206 6.86313L58.4554 6.83611L58.4592 6.83225Z" fill="#191919"/>
<path d="M85.575 6.78978C85.8645 6.65084 86.2775 6.61224 86.6365 6.5968C88.1186 6.54662 89.7937 6.56592 91.4225 6.58136C93.0745 6.61996 94.6299 6.54276 96.2549 6.61224C97.3935 6.64698 97.8335 7.77401 98.2387 8.6656C99.6707 11.7263 101.242 15.038 102.592 17.9598C102.948 18.7356 102.824 19.1949 101.917 19.1794C100.655 19.2065 98.7945 19.1833 97.3278 19.1872C96.6331 19.1872 95.8998 19.1254 95.3208 18.724C94.9155 18.4538 94.5952 18.064 94.1552 17.8363C93.3987 17.404 92.3334 17.4889 91.3183 17.4773C90.4421 17.5043 89.4502 17.3808 88.6435 17.7243C87.8947 18.0485 87.3814 18.8359 86.5863 19.0444C86.2814 19.137 85.9494 19.1679 85.6252 19.1794C84.2743 19.1987 82.7497 19.1949 81.3448 19.191C80.8701 19.1833 80.2641 19.1987 79.9167 18.9594C79.3879 18.558 80.4802 17.072 80.6539 16.4969C81.7925 14.1155 82.9466 11.6106 84.0698 9.2407C84.1933 8.99754 84.3091 8.71964 84.4094 8.51893C84.7027 7.93998 84.9613 7.09856 85.5249 6.81294L85.575 6.78978ZM92.7348 14.0229C92.5766 13.359 92.0285 12.5292 91.6965 11.8383C91.0095 10.6225 90.4846 12.8727 90.1025 13.3629C89.9712 13.633 89.62 14.1271 90.1565 14.1387C90.8628 14.1502 91.6772 14.1541 92.4106 14.1425C92.5264 14.1348 92.6692 14.1425 92.7271 14.0538L92.7387 14.0229H92.7348Z" fill="#191919"/>
<path d="M107.81 12.0313C107.555 11.8229 107.197 11.8152 106.868 11.7959C105.684 11.7225 104.113 11.9001 102.885 11.6878C101.839 11.3983 102.04 10.2443 102.009 9.11723C102.067 8.24879 101.72 6.46947 103.043 6.6007C106.317 6.61228 117.722 6.51193 120.779 6.63158C121.586 6.77053 121.396 7.85896 121.443 8.47652C121.393 9.87759 121.836 11.8731 119.883 11.7766C118.849 11.8036 117.556 11.765 116.599 11.7997C116.205 11.8229 115.773 11.8962 115.533 12.232C115.24 12.6103 115.259 13.3166 115.256 14.0306C115.24 15.478 115.344 16.8173 115.202 18.2223C115.086 19.137 114.159 19.2104 113.391 19.1911C112.392 19.1949 111.353 19.1911 110.365 19.1911C108.879 19.2528 108.115 19.0174 108.196 17.5237C108.188 16.1844 108.204 14.6906 108.188 13.3629C108.188 12.9113 108.131 12.3053 107.849 12.0699L107.81 12.0352V12.0313Z" fill="#191919"/>
<path d="M123.581 6.85563C123.716 6.67422 123.978 6.64334 124.21 6.63176C127.132 6.48509 136.542 6.60089 140 6.61632C140.521 6.6279 140.861 6.84019 141 7.41528C141.142 8.21038 141.227 9.26408 140.822 10.009C140.455 10.6381 139.506 10.5069 138.73 10.5223C137.337 10.5223 135.48 10.5223 133.836 10.5223C132.887 10.5532 132.007 10.4259 131.177 10.6922C130.648 10.8929 130.988 11.1939 131.389 11.2634C132.103 11.4101 132.825 11.356 133.585 11.3676C135.229 11.3676 137.468 11.3676 138.881 11.3676C139.413 11.3676 140.039 11.3715 140.363 11.8539C140.749 12.375 140.741 13.5329 140.15 13.9845C139.784 14.2701 139.282 14.2547 138.83 14.2624C137.294 14.2624 134.921 14.2624 133.126 14.2624C132.462 14.3126 131.277 14.1196 130.895 14.7256C130.798 15.0768 131.945 15.2736 132.531 15.2466C134.65 15.2582 137.229 15.2428 139.22 15.2466C140.814 15.1424 141.185 15.9337 141.112 17.52C141.112 18.1916 141.015 19.1449 140.158 19.1449C136.966 19.2646 127.468 19.1527 124.484 19.1681C123.944 19.2183 123.531 18.8863 123.465 18.3305C123.303 15.6056 123.442 12.5641 123.399 9.77357C123.442 8.88583 123.253 7.59283 123.565 6.87493L123.585 6.84791L123.581 6.85563Z" fill="#191919"/>
</g>
<defs>
<filter id="filter0_dddd_2613_4436" x="0.212891" y="0.452393" width="146" height="44.5981" filterUnits="userSpaceOnUse" color-interpolation-filters="sRGB">
<feFlood flood-opacity="0" result="BackgroundImageFix"/>
<feColorMatrix in="SourceAlpha" type="matrix" values="0 0 0 0 0 0 0 0 0 0 0 0 0 0 0 0 0 0 127 0" result="hardAlpha"/>
<feOffset dx="-1" dy="1"/>
<feGaussianBlur stdDeviation="1"/>
<feColorMatrix type="matrix" values="0 0 0 0 0.560784 0 0 0 0 0.560784 0 0 0 0 0.560784 0 0 0 0.1 0"/>
<feBlend mode="normal" in2="BackgroundImageFix" result="effect1_dropShadow_2613_4436"/>
<feColorMatrix in="SourceAlpha" type="matrix" values="0 0 0 0 0 0 0 0 0 0 0 0 0 0 0 0 0 0 127 0" result="hardAlpha"/>
<feOffset dx="-2" dy="4"/>
<feGaussianBlur stdDeviation="2"/>
<feColorMatrix type="matrix" values="0 0 0 0 0.560784 0 0 0 0 0.560784 0 0 0 0 0.560784 0 0 0 0.09 0"/>
<feBlend mode="normal" in2="effect1_dropShadow_2613_4436" result="effect2_dropShadow_2613_4436"/>
<feColorMatrix in="SourceAlpha" type="matrix" values="0 0 0 0 0 0 0 0 0 0 0 0 0 0 0 0 0 0 127 0" result="hardAlpha"/>
<feOffset dx="-5" dy="8"/>
<feGaussianBlur stdDeviation="2.5"/>
<feColorMatrix type="matrix" values="0 0 0 0 0.560784 0 0 0 0 0.560784 0 0 0 0 0.560784 0 0 0 0.05 0"/>
<feBlend mode="normal" in2="effect2_dropShadow_2613_4436" result="effect3_dropShadow_2613_4436"/>
<feColorMatrix in="SourceAlpha" type="matrix" values="0 0 0 0 0 0 0 0 0 0 0 0 0 0 0 0 0 0 127 0" result="hardAlpha"/>
<feOffset dx="-8" dy="14"/>
<feGaussianBlur stdDeviation="3"/>
<feColorMatrix type="matrix" values="0 0 0 0 0.560784 0 0 0 0 0.560784 0 0 0 0 0.560784 0 0 0 0.01 0"/>
<feBlend mode="normal" in2="effect3_dropShadow_2613_4436" result="effect4_dropShadow_2613_4436"/>
<feBlend mode="normal" in="SourceGraphic" in2="effect4_dropShadow_2613_4436" result="shape"/>
</filter>
<radialGradient id="paint0_radial_2613_4436" cx="0" cy="0" r="1" gradientUnits="userSpaceOnUse" gradientTransform="translate(79.2129 13.2515) rotate(168.038) scale(56.9298 23.3919)">
<stop stop-color="white"/>
<stop offset="1" stop-color="white" stop-opacity="0.95"/>
</radialGradient>
</defs>
</svg>
