<?xml version="1.0" encoding="utf-8"?>
<!-- Generator: Adobe Illustrator 24.3.0, SVG Export Plug-In . SVG Version: 6.00 Build 0)  -->
<svg version="1.1" id="Layer_1" xmlns="http://www.w3.org/2000/svg" xmlns:xlink="http://www.w3.org/1999/xlink" x="0px" y="0px"
	 width="24px" height="24px" viewBox="0 0 24 24" enable-background="new 0 0 24 24" xml:space="preserve">
<path d="M22,9.1c0-4.7-3.1-6-3.1-6c-1.5-0.7-4.2-1-6.9-1l0,0C9.3,2,6.7,2.4,5.1,3C5.1,3,2,4.4,2,9c0,1,0,2.4,0,3.6
	c0.1,4.5,0.8,9,5,10.1c1.9,0.5,3.6,0.6,4.9,0.6c2.4-0.1,3.8-0.9,3.8-0.9l-0.1-1.7c0,0-1.7,0.6-3.6,0.5S8,21,7.7,18.6
	c0-0.2,0-0.5,0-0.7c0,0,1.9,0.5,4.3,0.6c1.5,0.1,2.8-0.1,4.2-0.2c2.7-0.3,5-1.9,5.3-3.5C22,12.6,22,9.1,22,9.1z M18.4,15.1h-2.3V9.6
	c0-1.1-0.5-1.7-1.5-1.7S13,8.6,13,9.9v3h-2.2V10c0-1.4-0.6-2-1.6-2C8.3,8,7.7,8.6,7.7,9.7v5.5H5.5V9.5c0-1.1,0.3-2,0.9-2.7
	s1.4-1,2.4-1c1.1,0,2,0.5,2.6,1.4L12,7.9L12.6,7c0.6-0.9,1.5-1.4,2.6-1.4c1,0,1.8,0.3,2.4,1s0.9,1.6,0.9,2.7V15h-0.1V15.1z"/>
</svg>
