<svg width="44" height="44" viewBox="0 0 44 44" fill="none" xmlns="http://www.w3.org/2000/svg">
<g filter="url(#filter0_ddd_2644_1612)">
<path d="M41.4657 15.0212V14.9899L41.4553 14.9586C41.3614 14.583 41.2153 14.2283 41.0484 13.8944C41.1005 13.2372 41.0275 12.6634 40.9232 12.2669C40.245 9.61693 37.8037 8.66753 36.4683 8.15632L36.4474 8.06242L36.4266 7.96852L36.3953 7.8016C35.6858 4.31698 33.6305 3.28412 32.0343 3.03373L31.8048 3.00243C28.6227 1.17666 25.0233 0.769775 22.5194 0.769775C19.233 0.769775 15.9362 1.42705 13.2237 2.62684L13.0359 2.71031L12.8585 2.8042C12.7437 2.8668 12.6394 2.9607 12.5351 3.03373C10.9388 3.28412 8.89397 4.31698 8.1741 7.8016L8.1428 7.96852L8.12193 8.06242L8.10107 8.15632C6.76565 8.66753 4.32433 9.61693 3.64619 12.2669C3.55229 12.6529 3.46883 13.2059 3.52099 13.8423L3.3645 14.3431C1.42397 20.655 2.45683 27.5512 6.1188 32.8094C9.39475 37.5147 14.3504 40.2899 20.0677 40.6341C20.9128 40.728 21.7578 40.7698 22.5925 40.7698C28.8001 40.7698 34.2148 38.245 37.835 33.6545C41.7787 28.6571 43.1037 21.8652 41.4761 15.0212H41.4657Z" fill="#3AE660"/>
</g>
<path d="M22.3851 7.18615C24.6073 7.12355 26.84 7.7391 28.6553 8.29204C29.1248 8.33377 30.0533 7.11312 29.9281 6.71666C25.8384 4.23362 19.1822 4.53617 14.9046 6.43497C14.3621 6.74796 14.6543 7.11312 15.0507 7.65563C15.708 8.69893 16.3444 8.14598 17.3042 7.87472C18.817 7.40524 20.5802 7.18615 22.166 7.18615H22.3747H22.3851Z" fill="#191919"/>
<path d="M8.72714 20.4569C8.50804 18.892 9.6035 16.9514 8.61237 15.6056C8.28895 15.2196 7.66297 15.1048 7.36042 15.5639C4.47048 24.9431 9.8539 35.8977 20.4121 36.4715C32.9942 37.8591 40.0991 27.2175 37.4074 15.9916C37.0735 14.6666 35.5607 15.3552 35.5294 16.6593C35.6651 18.2869 35.9781 20.0292 35.7903 21.8862C35.4877 29.8362 29.061 35.0631 21.2989 34.3849C13.2029 34.1241 8.69584 27.9895 8.72714 20.6656V20.4569Z" fill="#191919"/>
<path d="M14.8078 18.8398C13.921 19.1528 10.7389 22.8878 10.8432 20.3317C11.2188 16.4506 11.3649 16.1794 8.02634 14.218C6.4614 12.3713 10.6972 12.1731 11.3127 11.1089C11.8448 10.6082 12.0639 9.73179 12.21 8.92845C12.356 8.29204 12.4499 7.28005 13.2011 7.16528C14.6095 7.30091 15.1834 9.77353 16.6544 9.91959C17.6664 10.2847 19.9408 9.46054 21.1302 9.94045C21.2971 10.0761 21.3075 10.3056 21.1615 10.629C18.9392 13.8424 18.5532 13.7798 20.2434 17.5774C21.1093 19.5179 20.1912 19.1736 18.0837 18.7459C16.957 18.4642 15.7154 18.3181 14.9538 18.7772L14.8182 18.8502L14.8078 18.8398Z" fill="#191919"/>
<path d="M12.9102 21.7816C13.3796 34.7602 31.7208 33.9047 31.5852 21.7607C29.4151 21.7607 16.1235 21.719 12.931 21.7607H12.9102V21.7816Z" fill="#191919"/>
<path d="M29.7704 18.8398C30.6572 19.1528 33.8392 22.8878 33.7349 20.3317C33.3593 16.4506 33.2133 16.1794 36.5518 14.218C38.1167 12.3713 33.881 12.1731 33.2654 11.1089C32.7333 10.6082 32.5142 9.73179 32.3682 8.92845C32.2221 8.29204 32.1282 7.28005 31.3771 7.16528C29.9686 7.30091 29.3948 9.77353 27.9237 9.91959C26.9117 10.2847 24.6374 9.46054 23.448 9.94045C23.2811 10.0761 23.2706 10.3056 23.4167 10.629C25.6389 13.8424 26.0249 13.7798 24.3348 17.5774C23.4689 19.5179 24.387 19.1736 26.4944 18.7459C27.6212 18.4642 28.8627 18.3181 29.6243 18.7772L29.7599 18.8502L29.7704 18.8398Z" fill="#191919"/>
<defs>
<filter id="filter0_ddd_2644_1612" x="0.402344" y="0.769775" width="42.7539" height="42.9998" filterUnits="userSpaceOnUse" color-interpolation-filters="sRGB">
<feFlood flood-opacity="0" result="BackgroundImageFix"/>
<feColorMatrix in="SourceAlpha" type="matrix" values="0 0 0 0 0 0 0 0 0 0 0 0 0 0 0 0 0 0 127 0" result="hardAlpha"/>
<feOffset dy="1"/>
<feGaussianBlur stdDeviation="0.5"/>
<feColorMatrix type="matrix" values="0 0 0 0 0.560784 0 0 0 0 0.560784 0 0 0 0 0.560784 0 0 0 0.09 0"/>
<feBlend mode="normal" in2="BackgroundImageFix" result="effect1_dropShadow_2644_1612"/>
<feColorMatrix in="SourceAlpha" type="matrix" values="0 0 0 0 0 0 0 0 0 0 0 0 0 0 0 0 0 0 127 0" result="hardAlpha"/>
<feOffset dx="-1" dy="1"/>
<feGaussianBlur stdDeviation="0.5"/>
<feColorMatrix type="matrix" values="0 0 0 0 0.560784 0 0 0 0 0.560784 0 0 0 0 0.560784 0 0 0 0.05 0"/>
<feBlend mode="normal" in2="effect1_dropShadow_2644_1612" result="effect2_dropShadow_2644_1612"/>
<feColorMatrix in="SourceAlpha" type="matrix" values="0 0 0 0 0 0 0 0 0 0 0 0 0 0 0 0 0 0 127 0" result="hardAlpha"/>
<feOffset dx="-1" dy="2"/>
<feGaussianBlur stdDeviation="0.5"/>
<feColorMatrix type="matrix" values="0 0 0 0 0.560784 0 0 0 0 0.560784 0 0 0 0 0.560784 0 0 0 0.01 0"/>
<feBlend mode="normal" in2="effect2_dropShadow_2644_1612" result="effect3_dropShadow_2644_1612"/>
<feBlend mode="normal" in="SourceGraphic" in2="effect3_dropShadow_2644_1612" result="shape"/>
</filter>
</defs>
</svg>
