<svg width="45" height="62" viewBox="0 0 45 62" fill="none" xmlns="http://www.w3.org/2000/svg">
<g filter="url(#filter0_dddd_2644_1648)">
<path d="M41.5478 19.7658C40.4173 17.4934 38.2249 16.8768 36.5007 16.6827C36.5007 15.7464 36.5007 14.673 36.5007 13.5996C36.5007 11.4186 36.5007 9.18056 36.5007 7.90166C36.5578 6.20026 35.9868 4.5788 34.9249 3.43692C33.92 2.36355 32.5498 1.76978 31.0767 1.76978C30.7913 1.76978 30.5058 1.79261 30.2318 1.83829C30.1518 1.84971 30.0719 1.86113 29.992 1.88396L29.9006 1.9068C29.9006 1.9068 29.8093 1.92964 29.7522 1.94106C28.3933 2.2722 27.24 3.11719 26.338 4.43035C25.6642 5.44662 24.1455 7.57052 22.5355 9.82002C18.9843 14.7529 16.4036 18.3841 15.3759 20.1083C15.1704 20.4395 15.0219 20.8049 14.9078 21.1703C14.4967 22.552 14.6565 23.9793 15.3417 25.1897C15.8327 26.0461 16.8033 27.1651 18.676 27.7132C19.2355 27.8959 19.7836 27.9987 20.2974 28.0444C20.2974 28.7409 20.2974 29.4832 20.2974 30.2368C20.2974 32.3721 20.2974 34.5303 20.2974 35.6493C20.2632 37.3164 20.8455 38.9151 21.896 40.0455C22.8895 41.1075 24.2255 41.7127 25.6757 41.7698C25.7556 41.7698 25.8355 41.7698 25.8926 41.7698C26.9317 41.7698 28.8958 41.45 30.5058 39.2919C32.2186 37.031 39.1612 27.8503 40.8398 25.635C40.8855 25.5779 40.9312 25.5094 40.9768 25.4409C42.7353 22.8374 41.9588 20.6222 41.5478 19.7886V19.7658Z" fill="#3AE660"/>
</g>
<path d="M30.8365 6.36021C30.5281 6.44014 30.2884 6.72561 30.0942 6.99966C28.2901 9.69449 20.9478 19.7088 19.2806 22.4607C19.1665 22.8603 19.3149 23.1687 20.0343 23.3514C21.4616 23.8995 25.0471 22.6548 24.853 25.087C24.8644 27.2109 24.853 33.5712 24.853 35.6951C24.8302 36.3688 25.0928 37.1681 25.8236 37.1909C26.2461 37.2252 26.5887 36.8826 26.8399 36.54C28.5184 34.3134 35.4953 25.0984 37.1739 22.8718C38.8296 20.4167 33.5998 21.6157 32.7091 20.7022C32.0012 20.2911 31.9212 19.5261 31.9212 18.7838C31.9212 16.3859 31.9212 10.1969 31.9212 7.79897C31.9669 7.12527 31.7043 6.21176 30.9164 6.33737L30.825 6.36021H30.8365Z" fill="#191919"/>
<defs>
<filter id="filter0_dddd_2644_1648" x="0.683594" y="0.769775" width="43.3945" height="60.9998" filterUnits="userSpaceOnUse" color-interpolation-filters="sRGB">
<feFlood flood-opacity="0" result="BackgroundImageFix"/>
<feColorMatrix in="SourceAlpha" type="matrix" values="0 0 0 0 0 0 0 0 0 0 0 0 0 0 0 0 0 0 127 0" result="hardAlpha"/>
<feOffset dx="-1" dy="1"/>
<feGaussianBlur stdDeviation="1"/>
<feColorMatrix type="matrix" values="0 0 0 0 0.560784 0 0 0 0 0.560784 0 0 0 0 0.560784 0 0 0 0.1 0"/>
<feBlend mode="normal" in2="BackgroundImageFix" result="effect1_dropShadow_2644_1648"/>
<feColorMatrix in="SourceAlpha" type="matrix" values="0 0 0 0 0 0 0 0 0 0 0 0 0 0 0 0 0 0 127 0" result="hardAlpha"/>
<feOffset dx="-2" dy="4"/>
<feGaussianBlur stdDeviation="2"/>
<feColorMatrix type="matrix" values="0 0 0 0 0.560784 0 0 0 0 0.560784 0 0 0 0 0.560784 0 0 0 0.09 0"/>
<feBlend mode="normal" in2="effect1_dropShadow_2644_1648" result="effect2_dropShadow_2644_1648"/>
<feColorMatrix in="SourceAlpha" type="matrix" values="0 0 0 0 0 0 0 0 0 0 0 0 0 0 0 0 0 0 127 0" result="hardAlpha"/>
<feOffset dx="-5" dy="8"/>
<feGaussianBlur stdDeviation="2.5"/>
<feColorMatrix type="matrix" values="0 0 0 0 0.560784 0 0 0 0 0.560784 0 0 0 0 0.560784 0 0 0 0.05 0"/>
<feBlend mode="normal" in2="effect2_dropShadow_2644_1648" result="effect3_dropShadow_2644_1648"/>
<feColorMatrix in="SourceAlpha" type="matrix" values="0 0 0 0 0 0 0 0 0 0 0 0 0 0 0 0 0 0 127 0" result="hardAlpha"/>
<feOffset dx="-8" dy="14"/>
<feGaussianBlur stdDeviation="3"/>
<feColorMatrix type="matrix" values="0 0 0 0 0.560784 0 0 0 0 0.560784 0 0 0 0 0.560784 0 0 0 0.01 0"/>
<feBlend mode="normal" in2="effect3_dropShadow_2644_1648" result="effect4_dropShadow_2644_1648"/>
<feBlend mode="normal" in="SourceGraphic" in2="effect4_dropShadow_2644_1648" result="shape"/>
</filter>
</defs>
</svg>
