<svg width="57" height="59" viewBox="0 0 57 59" fill="none" xmlns="http://www.w3.org/2000/svg">
<g filter="url(#filter0_dddd_2644_1634)">
<path d="M54.6433 21.2431C54.8592 18.89 54.2007 16.6773 52.8407 15.1337C51.8477 14.022 50.5524 13.2988 49.106 13.0613C49.3866 10.3628 48.5987 7.64275 46.8717 5.4084C44.8208 2.76389 41.7985 1.24194 38.5387 1.24194H38.3013C36.272 1.26353 34.2535 1.91117 32.5589 3.03374C30.8535 1.90037 28.8566 1.28512 26.7194 1.28512C23.7618 1.28512 20.8907 2.49404 18.829 4.59886C16.8753 6.59573 15.8283 9.24025 15.8823 12.0575C15.8823 13.968 16.4112 15.8893 17.3934 17.5516C17.1775 17.6703 16.9725 17.8106 16.7782 17.9725C14.5222 19.8183 14.6518 22.6031 14.7057 23.9416C14.7057 24.1467 14.7273 24.3518 14.7273 24.4921C14.7057 24.6648 14.7057 24.8375 14.7057 24.9994C14.7489 27.903 15.7743 29.4141 16.8753 30.1913C16.8861 30.4719 16.9185 30.7634 16.9509 31.044C17.2315 34.185 19.6709 37.0778 22.7256 37.855C22.8659 37.8873 23.0063 37.9197 23.1466 37.9413C24.3771 38.1248 26.1473 38.2112 28.9105 38.2112C30.2706 38.2112 31.7278 38.1896 33.1202 38.168C34.3615 38.1464 35.5596 38.1356 36.6066 38.1356C37.2435 38.1356 37.8155 38.1356 38.2905 38.1572C38.474 38.168 38.6575 38.1788 38.841 38.1788C40.4601 38.1788 42.0144 37.7362 43.3097 36.9375C44.6373 37.6499 46.332 38.2975 48.1237 38.2975C51.1784 38.2975 54.3842 36.2359 54.6433 31.6269C54.6433 31.5621 54.6433 31.4865 54.6433 31.4218C54.6433 30.3532 54.6433 27.8598 54.6433 25.388V21.2431Z" fill="#3AE660"/>
</g>
<path d="M38.3665 9.96338C35.8947 10.0389 35.5277 13.752 38.0211 14.2378C41.0973 14.7451 41.5615 10.1685 38.5392 9.96338H38.3773H38.3665Z" fill="#191919"/>
<path d="M26.3744 26.2298C25.8131 26.4133 25.4353 27.1581 25.5001 27.8381C25.5109 28.6369 25.349 29.6731 26.0182 30.1804C26.5687 30.6445 27.3135 30.4179 28.1878 30.4718C30.5948 30.4718 35.1499 30.4718 36.7258 30.4718C37.2007 30.461 37.449 30.5474 37.9131 30.1804C38.388 29.8458 38.4528 29.1442 38.442 28.5505C38.442 27.7302 38.4744 26.9422 38.0426 26.5536C37.3518 25.9168 36.9632 26.2082 36.1861 26.1435C34.0165 26.1758 28.8138 26.0787 26.4715 26.1758L26.3636 26.2082L26.3744 26.2298ZM28.6735 29.4032C27.3243 29.3169 27.3566 27.2444 28.7383 27.2444C30.1307 27.2444 30.1415 29.3169 28.803 29.4032H28.6735ZM33.045 28.2483C33.0774 27.5683 33.8222 27.1257 34.5238 27.2336C35.56 27.0717 36.5855 27.633 36.1969 28.7232C35.9054 29.5004 34.9556 29.3924 34.2863 29.3924C33.7035 29.4788 33.045 28.9175 33.045 28.3778V28.2483Z" fill="#191919"/>
<path d="M24.4102 12.0466C24.4857 9.57483 28.1988 9.20784 28.6846 11.7012C29.1919 14.7775 24.6152 15.2417 24.4102 12.2193V12.0574V12.0466Z" fill="#191919"/>
<path d="M38.3455 5.57039C36.6724 5.59197 34.8914 6.37993 33.7365 7.6752C32.9593 8.60348 32.3657 8.98127 31.4266 7.82632C27.7243 3.32525 20.0606 6.15326 20.2009 12.0252C20.1793 13.6442 20.8269 15.2525 21.9063 16.4399C22.2841 16.8932 22.554 17.271 22.5432 17.6488C22.3921 18.5987 21.5177 19.3219 21.3127 20.3257C21.0968 20.8762 20.9025 21.2971 20.6434 21.3727C20.2764 21.4914 19.8555 21.254 19.5101 21.3187C18.6789 21.9988 19.1431 23.8013 19.0243 24.9563C19.0351 25.8198 19.1323 27.0287 19.6936 26.6401C19.985 26.3595 20.298 25.7335 20.6111 25.5068C20.7406 25.4312 20.8809 25.5176 20.9888 25.7874C21.4098 27.1906 21.0428 29.3602 21.2587 30.5691C21.3235 31.9508 22.5108 33.3648 23.7953 33.6886C26.796 34.1419 35.021 33.7318 38.5074 33.8613C39.8998 33.9584 41.4218 33.4079 42.1665 32.1558C42.4364 31.7349 42.5983 31.4111 42.7602 31.3355C43.1704 31.2599 43.3107 31.7781 43.9799 32.2746C46.1927 33.9153 50.0893 35.4696 50.316 31.4003C50.3268 29.6517 50.316 24.028 50.316 21.0273C50.629 18.4475 49.1394 16.4291 46.5057 17.6812C45.4479 18.1237 43.8612 18.9657 43.2567 19.7536C42.9653 20.0666 42.7818 20.1422 42.5767 19.8292C42.2097 19.2463 41.7456 18.4368 42.0154 17.7459C42.9113 16.4399 44.3793 15.2741 44.6384 13.5471C45.6638 9.58573 42.5012 5.5488 38.5398 5.55959H38.3347L38.3455 5.57039ZM34.1251 12.036C34.3194 6.57422 42.404 6.42311 42.7494 11.9064C42.8897 17.692 34.4165 17.9834 34.1251 12.2194V12.036ZM48.1356 19.2571C48.2111 21.4806 48.1572 30.5044 48.1572 31.9184C47.7146 31.9184 47.0778 31.4003 46.4194 31.1304C45.9444 30.8282 45.1888 30.6555 44.9406 30.2669C44.919 29.5329 44.919 21.6965 44.9406 20.9517C45.3292 20.4876 47.5203 19.5917 48.0924 19.2571H48.1356ZM24.2594 19.7752C28.2316 19.5054 35.6038 19.7752 39.1011 19.6781C41.1303 19.9263 40.5043 21.8045 40.6014 23.6286C40.5259 25.8306 40.7525 28.4967 40.5043 30.5368C40.2668 31.1736 39.6516 31.6054 38.9823 31.5406C36.8235 31.5406 26.7204 31.5406 24.8315 31.5406C24.1299 31.573 23.4714 30.9685 23.3635 30.2777C23.2664 28.0434 23.3635 24.3518 23.3311 22.1067C23.288 21.0597 23.3311 20.3257 24.1515 19.8184L24.2486 19.7644L24.2594 19.7752ZM26.6665 7.80473C32.4304 8.09617 32.139 16.5694 26.3534 16.4291C20.8701 16.0837 21.0212 7.98823 26.483 7.80473H26.6665Z" fill="#191919"/>
<defs>
<filter id="filter0_dddd_2644_1634" x="0.683594" y="0.241943" width="56" height="58.0554" filterUnits="userSpaceOnUse" color-interpolation-filters="sRGB">
<feFlood flood-opacity="0" result="BackgroundImageFix"/>
<feColorMatrix in="SourceAlpha" type="matrix" values="0 0 0 0 0 0 0 0 0 0 0 0 0 0 0 0 0 0 127 0" result="hardAlpha"/>
<feOffset dx="-1" dy="1"/>
<feGaussianBlur stdDeviation="1"/>
<feColorMatrix type="matrix" values="0 0 0 0 0.560784 0 0 0 0 0.560784 0 0 0 0 0.560784 0 0 0 0.1 0"/>
<feBlend mode="normal" in2="BackgroundImageFix" result="effect1_dropShadow_2644_1634"/>
<feColorMatrix in="SourceAlpha" type="matrix" values="0 0 0 0 0 0 0 0 0 0 0 0 0 0 0 0 0 0 127 0" result="hardAlpha"/>
<feOffset dx="-2" dy="4"/>
<feGaussianBlur stdDeviation="2"/>
<feColorMatrix type="matrix" values="0 0 0 0 0.560784 0 0 0 0 0.560784 0 0 0 0 0.560784 0 0 0 0.09 0"/>
<feBlend mode="normal" in2="effect1_dropShadow_2644_1634" result="effect2_dropShadow_2644_1634"/>
<feColorMatrix in="SourceAlpha" type="matrix" values="0 0 0 0 0 0 0 0 0 0 0 0 0 0 0 0 0 0 127 0" result="hardAlpha"/>
<feOffset dx="-5" dy="8"/>
<feGaussianBlur stdDeviation="2.5"/>
<feColorMatrix type="matrix" values="0 0 0 0 0.560784 0 0 0 0 0.560784 0 0 0 0 0.560784 0 0 0 0.05 0"/>
<feBlend mode="normal" in2="effect2_dropShadow_2644_1634" result="effect3_dropShadow_2644_1634"/>
<feColorMatrix in="SourceAlpha" type="matrix" values="0 0 0 0 0 0 0 0 0 0 0 0 0 0 0 0 0 0 127 0" result="hardAlpha"/>
<feOffset dx="-8" dy="14"/>
<feGaussianBlur stdDeviation="3"/>
<feColorMatrix type="matrix" values="0 0 0 0 0.560784 0 0 0 0 0.560784 0 0 0 0 0.560784 0 0 0 0.01 0"/>
<feBlend mode="normal" in2="effect3_dropShadow_2644_1634" result="effect4_dropShadow_2644_1634"/>
<feBlend mode="normal" in="SourceGraphic" in2="effect4_dropShadow_2644_1634" result="shape"/>
</filter>
</defs>
</svg>
