<svg width="56" height="62" viewBox="0 0 56 62" fill="none" xmlns="http://www.w3.org/2000/svg">
<g filter="url(#filter0_dddd_2644_1653)">
<path d="M52.9441 32.2148C52.599 31.7062 52.2448 31.3338 51.945 31.025C51.4364 30.5073 50.7643 29.8443 50.0558 29.1358C49.9468 29.0268 49.8379 28.9269 49.7289 28.8179C50.401 28.2366 51.0458 27.4918 51.3819 26.411C51.3819 26.3928 51.391 26.3747 51.4001 26.3565C52.1358 23.8497 50.8097 21.2975 48.3755 20.48C47.4309 20.1167 45.1875 19.2085 42.826 18.2548C41.6271 17.7643 40.3828 17.2648 39.1748 16.7743C39.5563 16.3928 39.9559 15.9932 40.3828 15.5754C41.1912 14.767 42.0268 13.9314 42.6807 13.2684C42.6898 13.2593 42.708 13.2412 42.7171 13.2321C44.1703 11.7062 44.2248 10.1349 44.1158 9.29021C43.8705 7.34652 42.3628 5.77522 40.4282 5.44825C40.1739 5.40284 39.9196 5.38467 39.6744 5.38467C38.8388 5.38467 37.5763 5.6299 36.341 6.79248C36.3229 6.81065 36.3047 6.82881 36.2865 6.84698C36.0231 7.10129 35.7234 7.40102 35.4237 7.70075V6.96505C35.4237 6.28385 35.4237 5.40284 34.9968 4.44008C34.3065 2.81428 32.717 1.76978 30.9278 1.76978C29.8742 1.76978 28.8569 2.15125 28.0667 2.83245C26.4863 4.20393 26.4682 6.05679 26.4591 6.75615V6.84698C26.4591 6.84698 26.4591 6.91056 26.4591 6.9378C26.4591 7.16487 26.4591 7.42827 26.4591 7.70983L26.4228 7.6735L26.1321 7.38285C26.1321 7.38285 26.0867 7.33744 26.0595 7.31928C25.9868 7.24661 25.9232 7.18304 25.8596 7.12854C25.4691 6.73799 24.8242 6.07495 23.7161 5.66623C23.6526 5.63898 23.5799 5.62082 23.5163 5.60265C23.0894 5.46641 22.6535 5.40284 22.2084 5.40284C20.628 5.40284 19.1476 6.26569 18.3301 7.64625C17.5309 9.00865 17.5036 10.6344 18.2393 12.0059C18.6208 12.7416 19.1112 13.2321 19.5018 13.6226L19.6199 13.7407C19.7561 13.8769 19.8923 14.0132 20.0286 14.1494C19.747 14.1494 19.4836 14.1494 19.2566 14.1494C19.2475 14.1494 19.2293 14.1494 19.2202 14.1494C19.2021 14.1494 19.1839 14.1494 19.1657 14.1494H19.0749C18.3755 14.1494 16.5136 14.1767 15.1421 15.7661C14.2248 16.8288 13.8705 18.282 14.1975 19.6626C14.5245 21.0341 15.4873 22.1694 16.7679 22.7144C17.7216 23.1231 18.5481 23.1322 19.1022 23.1322H19.2202H20.0013C19.7016 23.4319 19.411 23.7225 19.1567 23.9859C19.1476 23.995 19.1294 24.0132 19.1203 24.0223C17.6671 25.5482 17.6126 27.1195 17.7216 27.9641C17.9668 29.9078 19.4745 31.4791 21.4091 31.8061C21.6635 31.8515 21.9178 31.8697 22.163 31.8697C22.9986 31.8697 24.2611 31.6245 25.4963 30.4619C25.5145 30.4437 25.5327 30.4255 25.5508 30.4074C26.2956 29.6808 27.2402 28.7362 28.1848 27.7825C28.4845 27.4828 28.7843 27.183 29.084 26.8833C29.5745 28.1095 30.0831 29.381 30.5826 30.6072C31.609 33.1503 32.49 35.3393 32.826 36.2203C33.0259 36.7198 33.589 38.1004 35.242 38.8724C35.2693 38.8906 35.3056 38.8997 35.3329 38.9178C35.9596 39.1903 36.6135 39.3265 37.2765 39.3265C39.0749 39.3265 40.3011 38.3638 41.1094 37.4646C41.9904 38.3547 42.8805 39.2357 43.5436 39.8897C44.7606 41.0886 46.4137 41.7698 48.0758 41.7698C48.1394 41.7698 48.1939 41.7698 48.2575 41.7698C48.2938 41.7698 48.3301 41.7698 48.3665 41.7698C50.5645 41.6335 52.4446 40.3983 53.3892 38.4637C54.3519 36.4928 54.1703 34.1222 52.9078 32.2602L52.9441 32.2148Z" fill="#3AE660"/>
</g>
<path d="M49.9373 34.2585C49.7648 33.9951 49.574 33.7953 49.356 33.5773C48.1026 32.2966 45.7866 30.0441 44.5695 28.7726C44.2334 28.4183 44.7148 28.1186 45.0145 27.8734C45.4323 27.5555 45.9319 27.1831 46.3678 26.847C47.1308 26.2657 47.7575 25.8479 47.921 25.3393C48.1026 24.7126 47.8029 24.095 47.1853 23.9133C44.7511 22.996 33.6249 18.382 30.9909 17.4828C30.3733 17.4011 29.6558 18.1822 29.8374 18.7907C30.8002 21.3702 35.3415 32.5328 36.2498 34.8579C36.3679 35.1486 36.4859 35.3756 36.8129 35.53C38.0481 36.0659 38.6839 34.5945 39.5014 33.6136C39.7648 33.2685 40.0282 32.9052 40.2825 32.5782C40.5095 32.2875 40.7729 31.9878 41.0182 32.1785C41.2089 32.2966 41.4632 32.5782 41.8265 32.9415C43.1617 34.2676 44.96 36.0932 46.1226 37.2285C46.6676 37.7644 47.4124 38.1004 48.1844 38.0732C50.1644 37.9551 51.0182 35.8116 49.9464 34.2403L49.9373 34.2585Z" fill="#191919"/>
<path d="M22.1898 11.1613C23.6067 12.5691 25.3597 14.3402 26.5677 15.53C26.8401 15.7844 27.1762 16.0114 27.5577 15.9388C27.9119 15.8843 28.2207 15.5573 28.257 15.2031C28.3115 14.8398 28.0845 14.5037 27.8302 14.2312C26.7766 13.1595 25.2416 11.6427 24.1335 10.5255C23.9337 10.3257 23.7339 10.1259 23.5341 9.92605C23.089 9.50825 22.8892 9.20852 22.4351 9.04503H22.426C21.7266 8.81797 21.0636 9.62632 21.4269 10.2712C21.5722 10.5618 21.8447 10.8071 22.1898 11.1613Z" fill="#191919"/>
<path d="M30.0917 13.5773C30.119 14.0405 30.4187 14.5037 30.9183 14.5037H30.9273C31.8265 14.431 31.7811 13.5409 31.772 12.7508C31.772 11.2703 31.772 8.3275 31.772 6.96511C31.772 6.51097 31.772 6.16583 31.6358 5.87519C31.4451 5.40289 30.8002 5.24848 30.4187 5.57546C30.0463 5.89335 30.0736 6.42923 30.0645 6.89244C30.0827 8.5909 30.0282 11.8425 30.0827 13.5773H30.0917Z" fill="#191919"/>
<path d="M34.6785 15.9115H34.6876C35.1508 15.7389 35.3415 15.4392 35.7866 15.0214C35.9864 14.8216 36.1862 14.6218 36.386 14.422C37.4941 13.3048 39.0291 11.788 40.0827 10.7162C40.337 10.4438 40.564 10.1168 40.5095 9.7444C40.4732 9.39017 40.1553 9.07228 39.8102 9.0087C39.4287 8.93604 39.0926 9.16311 38.8202 9.41742C37.6122 10.5982 35.8592 12.3784 34.4423 13.7862C34.0972 14.1313 33.8338 14.3765 33.6794 14.6763C33.3252 15.3211 33.97 16.1204 34.6785 15.9024V15.9115Z" fill="#191919"/>
<path d="M25.0599 19.4538C25.8501 19.4538 26.7402 19.4992 26.8129 18.6091C26.8129 18.1004 26.3588 17.8007 25.8865 17.7735C24.1517 17.719 20.9001 17.7735 19.2016 17.7553C18.7384 17.7553 18.2025 17.7371 17.8847 18.1095C17.5486 18.491 17.7121 19.1359 18.1844 19.3266C18.5114 19.4719 18.8202 19.4538 19.2743 19.4628C20.6367 19.4628 23.5886 19.4628 25.0599 19.4628V19.4538Z" fill="#191919"/>
<path d="M27.1671 21.2975H27.158C26.6948 21.4701 26.5041 21.7607 26.059 22.1876C25.8592 22.3874 25.6594 22.5873 25.4596 22.7871C24.3515 23.9043 22.8165 25.4211 21.7629 26.4928C21.5086 26.7653 21.2816 27.0923 21.3361 27.4646C21.3724 27.8189 21.6903 28.1368 22.0354 28.2003C22.4169 28.273 22.753 28.0459 23.0254 27.7916C24.2334 26.6109 25.9864 24.8307 27.4033 23.4229C27.7484 23.0777 28.0118 22.8325 28.1662 22.5328C28.5204 21.8879 27.8756 21.0886 27.1671 21.3066V21.2975Z" fill="#191919"/>
<defs>
<filter id="filter0_dddd_2644_1653" x="0.078125" y="0.769775" width="55.9238" height="60.9998" filterUnits="userSpaceOnUse" color-interpolation-filters="sRGB">
<feFlood flood-opacity="0" result="BackgroundImageFix"/>
<feColorMatrix in="SourceAlpha" type="matrix" values="0 0 0 0 0 0 0 0 0 0 0 0 0 0 0 0 0 0 127 0" result="hardAlpha"/>
<feOffset dx="-1" dy="1"/>
<feGaussianBlur stdDeviation="1"/>
<feColorMatrix type="matrix" values="0 0 0 0 0.560784 0 0 0 0 0.560784 0 0 0 0 0.560784 0 0 0 0.1 0"/>
<feBlend mode="normal" in2="BackgroundImageFix" result="effect1_dropShadow_2644_1653"/>
<feColorMatrix in="SourceAlpha" type="matrix" values="0 0 0 0 0 0 0 0 0 0 0 0 0 0 0 0 0 0 127 0" result="hardAlpha"/>
<feOffset dx="-2" dy="4"/>
<feGaussianBlur stdDeviation="2"/>
<feColorMatrix type="matrix" values="0 0 0 0 0.560784 0 0 0 0 0.560784 0 0 0 0 0.560784 0 0 0 0.09 0"/>
<feBlend mode="normal" in2="effect1_dropShadow_2644_1653" result="effect2_dropShadow_2644_1653"/>
<feColorMatrix in="SourceAlpha" type="matrix" values="0 0 0 0 0 0 0 0 0 0 0 0 0 0 0 0 0 0 127 0" result="hardAlpha"/>
<feOffset dx="-5" dy="8"/>
<feGaussianBlur stdDeviation="2.5"/>
<feColorMatrix type="matrix" values="0 0 0 0 0.560784 0 0 0 0 0.560784 0 0 0 0 0.560784 0 0 0 0.05 0"/>
<feBlend mode="normal" in2="effect2_dropShadow_2644_1653" result="effect3_dropShadow_2644_1653"/>
<feColorMatrix in="SourceAlpha" type="matrix" values="0 0 0 0 0 0 0 0 0 0 0 0 0 0 0 0 0 0 127 0" result="hardAlpha"/>
<feOffset dx="-8" dy="14"/>
<feGaussianBlur stdDeviation="3"/>
<feColorMatrix type="matrix" values="0 0 0 0 0.560784 0 0 0 0 0.560784 0 0 0 0 0.560784 0 0 0 0.01 0"/>
<feBlend mode="normal" in2="effect3_dropShadow_2644_1653" result="effect4_dropShadow_2644_1653"/>
<feBlend mode="normal" in="SourceGraphic" in2="effect4_dropShadow_2644_1653" result="shape"/>
</filter>
</defs>
</svg>
